<?xml version="1.0" encoding="UTF-8" standalone="no"?>
<!-- Creator: CorelDRAW 2019 (64-Bit) -->

<svg
   xmlns:dc="http://purl.org/dc/elements/1.1/"
   xmlns:cc="http://creativecommons.org/ns#"
   xmlns:rdf="http://www.w3.org/1999/02/22-rdf-syntax-ns#"
   xmlns:svg="http://www.w3.org/2000/svg"
   xmlns="http://www.w3.org/2000/svg"
   xmlns:sodipodi="http://sodipodi.sourceforge.net/DTD/sodipodi-0.dtd"
   xmlns:inkscape="http://www.inkscape.org/namespaces/inkscape"
   xml:space="preserve"
   width="85"
   height="85"
   version="1.1"
   style="clip-rule:evenodd;fill-rule:evenodd;image-rendering:optimizeQuality;shape-rendering:geometricPrecision;text-rendering:geometricPrecision"
   viewBox="0 0 436.86542 436.87224"
   id="svg10"
   sodipodi:docname="compass.svg"
   inkscape:version="0.92.4 (5da689c313, 2019-01-14)"><metadata
   id="metadata14"><rdf:RDF><cc:Work
       rdf:about=""><dc:format>image/svg+xml</dc:format><dc:type
         rdf:resource="http://purl.org/dc/dcmitype/StillImage" /><dc:title /></cc:Work></rdf:RDF></metadata><sodipodi:namedview
   pagecolor="#ffffff"
   bordercolor="#666666"
   borderopacity="1"
   objecttolerance="10"
   gridtolerance="10"
   guidetolerance="10"
   inkscape:pageopacity="0"
   inkscape:pageshadow="2"
   inkscape:window-width="1366"
   inkscape:window-height="715"
   id="namedview12"
   showgrid="false"
   units="px"
   inkscape:zoom="8.5000905"
   inkscape:cx="-5.2359945"
   inkscape:cy="18.588037"
   inkscape:window-x="-8"
   inkscape:window-y="-8"
   inkscape:window-maximized="1"
   inkscape:current-layer="svg10" />
 <defs
   id="defs4">
  <style
   type="text/css"
   id="style2">
   <![CDATA[
    .fil0 {fill:#373435;fill-rule:nonzero}
   ]]>
  </style>
 </defs>
 <g
   id="Layer_x0020_1"
   style="fill:#021213;fill-opacity:1"
   transform="matrix(2.16104,0,0,2.16104,64.264116,64.245916)">
  <metadata
   id="CorelCorpID_0Corel-Layer" />
  <path
   class="fil0"
   d="m 2.9,0 51.75,51.75 c 4.5,-3.83 10.33,-6.15 16.7,-6.15 6.37,0 12.2,2.32 16.69,6.15 l 51.75,-51.76 2.9,2.9 -51.75,51.76 c 3.84,4.49 6.15,10.32 6.15,16.7 0,6.37 -2.32,12.2 -6.15,16.7 l 51.75,51.75 -2.9,2.9 -51.75,-51.75 c -4.5,3.83 -10.33,6.15 -16.7,6.15 -6.36,0 -12.19,-2.32 -16.69,-6.15 l -51.76,51.76 -2.9,-2.9 51.75,-51.76 c -3.84,-4.49 -6.15,-10.32 -6.15,-16.7 0,-6.37 2.32,-12.2 6.15,-16.7 L -0.01,2.9 2.89,0 Z m 5.45,70.38 c 0,1.46 0.18,2.77 0.54,3.94 0.36,1.17 0.87,2.18 1.54,3.02 0.67,0.84 1.49,1.49 2.46,1.95 0.97,0.46 2.08,0.69 3.34,0.69 1.23,0 2.33,-0.23 3.32,-0.69 0.98,-0.46 1.81,-1.11 2.48,-1.95 0.67,-0.84 1.18,-1.85 1.54,-3.02 0.36,-1.17 0.53,-2.48 0.53,-3.94 0,-1.46 -0.18,-2.78 -0.53,-3.96 -0.36,-1.18 -0.87,-2.2 -1.54,-3.04 -0.67,-0.84 -1.5,-1.49 -2.48,-1.95 -0.99,-0.46 -2.09,-0.69 -3.32,-0.69 -1.26,0 -2.37,0.24 -3.34,0.71 -0.97,0.47 -1.79,1.13 -2.46,1.97 -0.67,0.84 -1.18,1.86 -1.54,3.04 -0.36,1.18 -0.54,2.49 -0.54,3.92 z m 22.66,0 c 0,2.54 -0.38,4.78 -1.13,6.71 -0.76,1.93 -1.79,3.54 -3.11,4.84 -1.32,1.3 -2.88,2.28 -4.69,2.94 -1.81,0.66 -3.76,0.98 -5.85,0.98 -2.03,0 -3.94,-0.33 -5.74,-0.98 C 8.69,84.21 7.12,83.23 5.78,81.93 4.44,80.63 3.38,79.02 2.61,77.09 1.84,75.16 1.45,72.93 1.45,70.38 c 0,-2.54 0.4,-4.78 1.2,-6.7 0.8,-1.93 1.88,-3.55 3.23,-4.86 1.36,-1.32 2.93,-2.3 4.71,-2.96 1.79,-0.66 3.66,-0.98 5.63,-0.98 2.03,0 3.94,0.33 5.74,0.98 1.8,0.66 3.37,1.64 4.71,2.96 1.34,1.31 2.4,2.93 3.17,4.86 0.77,1.93 1.16,4.16 1.16,6.7 z m 110.23,8.85 v 5.74 H 121.41 V 55.28 h 6.68 V 79.23 Z M 70.1,135.55 c 0.94,0 1.72,-0.08 2.33,-0.24 0.62,-0.16 1.11,-0.37 1.48,-0.64 0.37,-0.27 0.63,-0.59 0.77,-0.96 0.14,-0.37 0.22,-0.78 0.22,-1.24 0,-0.97 -0.46,-1.78 -1.37,-2.42 -0.91,-0.64 -2.48,-1.34 -4.71,-2.08 -0.97,-0.34 -1.94,-0.74 -2.91,-1.18 -0.97,-0.44 -1.84,-1 -2.61,-1.67 -0.77,-0.67 -1.4,-1.48 -1.88,-2.44 -0.49,-0.96 -0.73,-2.12 -0.73,-3.49 0,-1.37 0.26,-2.61 0.77,-3.71 0.51,-1.1 1.24,-2.03 2.18,-2.81 0.94,-0.77 2.09,-1.36 3.43,-1.78 1.34,-0.41 2.86,-0.62 4.54,-0.62 2,0 3.73,0.21 5.18,0.64 1.46,0.43 2.66,0.9 3.6,1.41 l -1.93,5.27 c -0.83,-0.43 -1.75,-0.81 -2.76,-1.13 -1.01,-0.33 -2.24,-0.49 -3.66,-0.49 -1.6,0 -2.75,0.22 -3.45,0.66 -0.7,0.44 -1.05,1.12 -1.05,2.03 0,0.54 0.13,1 0.39,1.37 0.26,0.37 0.62,0.71 1.09,1.01 0.47,0.3 1.01,0.57 1.63,0.81 0.61,0.24 1.29,0.49 2.04,0.75 1.54,0.57 2.88,1.14 4.03,1.69 1.14,0.56 2.09,1.21 2.85,1.95 0.76,0.74 1.32,1.61 1.69,2.61 0.37,1 0.56,2.21 0.56,3.64 0,2.77 -0.97,4.92 -2.91,6.45 -1.94,1.53 -4.87,2.29 -8.78,2.29 -1.32,0 -2.5,-0.08 -3.56,-0.24 -1.06,-0.16 -1.99,-0.35 -2.81,-0.58 -0.82,-0.23 -1.52,-0.47 -2.1,-0.73 -0.59,-0.26 -1.08,-0.5 -1.48,-0.73 l 1.88,-5.31 c 0.89,0.49 1.98,0.92 3.28,1.31 1.3,0.38 2.89,0.58 4.78,0.58 z M 78.59,31.14 c -1.91,-3.4 -3.98,-6.75 -6.21,-10.07 -2.23,-3.31 -4.6,-6.44 -7.11,-9.38 v 19.45 h -6.6 V 1.45 h 5.44 c 0.94,0.94 1.99,2.1 3.13,3.47 1.14,1.37 2.31,2.83 3.49,4.39 1.18,1.56 2.36,3.17 3.53,4.84 1.17,1.67 2.27,3.28 3.3,4.82 V 1.45 h 6.64 v 29.69 z m -21.04,23.51 0.02,0.02 c -1.06,0.87 -2.03,1.84 -2.9,2.9 l -0.01,-0.01 c -3.1,3.75 -4.96,8.55 -4.96,13.79 0,5.24 1.86,10.04 4.96,13.79 l 0.01,-0.01 c 0.87,1.06 1.84,2.03 2.9,2.9 l -0.01,0.01 c 3.74,3.1 8.55,4.96 13.79,4.96 5.24,0 10.05,-1.86 13.79,-4.96 l -0.02,-0.02 c 1.06,-0.87 2.03,-1.84 2.9,-2.9 l 0.02,0.02 C 91.14,81.39 93,76.59 93,71.35 93,66.11 91.14,61.31 88.04,57.56 l -0.01,0.01 c -0.87,-1.06 -1.84,-2.03 -2.9,-2.9 l 0.02,-0.02 c -3.74,-3.1 -8.55,-4.96 -13.79,-4.96 -5.24,0 -10.05,1.86 -13.79,4.96 z"
   id="path7"
   style="fill:#021213;fill-opacity:1;fill-rule:nonzero"
   inkscape:connector-curvature="0" />
 </g>
</svg>