<?xml version="1.0" encoding="UTF-8"?>
<!DOCTYPE svg PUBLIC "-//W3C//DTD SVG 1.1//EN" "http://www.w3.org/Graphics/SVG/1.1/DTD/svg11.dtd">
<!-- Creator: CorelDRAW 2019 (64-Bit) -->
<svg xmlns="http://www.w3.org/2000/svg" xml:space="preserve" width="7.3456mm" height="7.346mm" version="1.1" style="shape-rendering:geometricPrecision; text-rendering:geometricPrecision; image-rendering:optimizeQuality; fill-rule:evenodd; clip-rule:evenodd"
viewBox="0 0 142.69 142.7"
 xmlns:xlink="http://www.w3.org/1999/xlink">
 <defs>
  <style type="text/css">
   <![CDATA[
    .fil0 {fill:#373435;fill-rule:nonzero}
   ]]>
  </style>
 </defs>
 <g id="Layer_x0020_1">
  <metadata id="CorelCorpID_0Corel-Layer"/>
  <path class="fil0" d="M2.9 0l51.75 51.75c4.5,-3.83 10.33,-6.15 16.7,-6.15 6.37,0 12.2,2.32 16.69,6.15l51.75 -51.76 2.9 2.9 -51.75 51.76c3.84,4.49 6.15,10.32 6.15,16.7 0,6.37 -2.32,12.2 -6.15,16.7l51.75 51.75 -2.9 2.9 -51.75 -51.75c-4.5,3.83 -10.33,6.15 -16.7,6.15 -6.36,0 -12.19,-2.32 -16.69,-6.15l-51.76 51.76 -2.9 -2.9 51.75 -51.76c-3.84,-4.49 -6.15,-10.32 -6.15,-16.7 0,-6.37 2.32,-12.2 6.15,-16.7l-51.75 -51.75 2.9 -2.9zm5.45 70.38c0,1.46 0.18,2.77 0.54,3.94 0.36,1.17 0.87,2.18 1.54,3.02 0.67,0.84 1.49,1.49 2.46,1.95 0.97,0.46 2.08,0.69 3.34,0.69 1.23,0 2.33,-0.23 3.32,-0.69 0.98,-0.46 1.81,-1.11 2.48,-1.95 0.67,-0.84 1.18,-1.85 1.54,-3.02 0.36,-1.17 0.53,-2.48 0.53,-3.94 0,-1.46 -0.18,-2.78 -0.53,-3.96 -0.36,-1.18 -0.87,-2.2 -1.54,-3.04 -0.67,-0.84 -1.5,-1.49 -2.48,-1.95 -0.99,-0.46 -2.09,-0.69 -3.32,-0.69 -1.26,0 -2.37,0.24 -3.34,0.71 -0.97,0.47 -1.79,1.13 -2.46,1.97 -0.67,0.84 -1.18,1.86 -1.54,3.04 -0.36,1.18 -0.54,2.49 -0.54,3.92zm22.66 0c0,2.54 -0.38,4.78 -1.13,6.71 -0.76,1.93 -1.79,3.54 -3.11,4.84 -1.32,1.3 -2.88,2.28 -4.69,2.94 -1.81,0.66 -3.76,0.98 -5.85,0.98 -2.03,0 -3.94,-0.33 -5.74,-0.98 -1.8,-0.66 -3.37,-1.64 -4.71,-2.94 -1.34,-1.3 -2.4,-2.91 -3.17,-4.84 -0.77,-1.93 -1.16,-4.16 -1.16,-6.71 0,-2.54 0.4,-4.78 1.2,-6.7 0.8,-1.93 1.88,-3.55 3.23,-4.86 1.36,-1.32 2.93,-2.3 4.71,-2.96 1.79,-0.66 3.66,-0.98 5.63,-0.98 2.03,0 3.94,0.33 5.74,0.98 1.8,0.66 3.37,1.64 4.71,2.96 1.34,1.31 2.4,2.93 3.17,4.86 0.77,1.93 1.16,4.16 1.16,6.7zm110.23 8.85l0 5.74 -19.83 0 0 -29.69 6.68 0 0 23.95 13.15 0zm-71.14 56.32c0.94,0 1.72,-0.08 2.33,-0.24 0.62,-0.16 1.11,-0.37 1.48,-0.64 0.37,-0.27 0.63,-0.59 0.77,-0.96 0.14,-0.37 0.22,-0.78 0.22,-1.24 0,-0.97 -0.46,-1.78 -1.37,-2.42 -0.91,-0.64 -2.48,-1.34 -4.71,-2.08 -0.97,-0.34 -1.94,-0.74 -2.91,-1.18 -0.97,-0.44 -1.84,-1 -2.61,-1.67 -0.77,-0.67 -1.4,-1.48 -1.88,-2.44 -0.49,-0.96 -0.73,-2.12 -0.73,-3.49 0,-1.37 0.26,-2.61 0.77,-3.71 0.51,-1.1 1.24,-2.03 2.18,-2.81 0.94,-0.77 2.09,-1.36 3.43,-1.78 1.34,-0.41 2.86,-0.62 4.54,-0.62 2,0 3.73,0.21 5.18,0.64 1.46,0.43 2.66,0.9 3.6,1.41l-1.93 5.27c-0.83,-0.43 -1.75,-0.81 -2.76,-1.13 -1.01,-0.33 -2.24,-0.49 -3.66,-0.49 -1.6,0 -2.75,0.22 -3.45,0.66 -0.7,0.44 -1.05,1.12 -1.05,2.03 0,0.54 0.13,1 0.39,1.37 0.26,0.37 0.62,0.71 1.09,1.01 0.47,0.3 1.01,0.57 1.63,0.81 0.61,0.24 1.29,0.49 2.04,0.75 1.54,0.57 2.88,1.14 4.03,1.69 1.14,0.56 2.09,1.21 2.85,1.95 0.76,0.74 1.32,1.61 1.69,2.61 0.37,1 0.56,2.21 0.56,3.64 0,2.77 -0.97,4.92 -2.91,6.45 -1.94,1.53 -4.87,2.29 -8.78,2.29 -1.32,0 -2.5,-0.08 -3.56,-0.24 -1.06,-0.16 -1.99,-0.35 -2.81,-0.58 -0.82,-0.23 -1.52,-0.47 -2.1,-0.73 -0.59,-0.26 -1.08,-0.5 -1.48,-0.73l1.88 -5.31c0.89,0.49 1.98,0.92 3.28,1.31 1.3,0.38 2.89,0.58 4.78,0.58zm8.49 -104.41c-1.91,-3.4 -3.98,-6.75 -6.21,-10.07 -2.23,-3.31 -4.6,-6.44 -7.11,-9.38l0 19.45 -6.6 0 0 -29.69 5.44 0c0.94,0.94 1.99,2.1 3.13,3.47 1.14,1.37 2.31,2.83 3.49,4.39 1.18,1.56 2.36,3.17 3.53,4.84 1.17,1.67 2.27,3.28 3.3,4.82l0 -17.52 6.64 0 0 29.69 -5.61 0zm-21.04 23.51l0.02 0.02c-1.06,0.87 -2.03,1.84 -2.9,2.9l-0.01 -0.01c-3.1,3.75 -4.96,8.55 -4.96,13.79 0,5.24 1.86,10.04 4.96,13.79l0.01 -0.01c0.87,1.06 1.84,2.03 2.9,2.9l-0.01 0.01c3.74,3.1 8.55,4.96 13.79,4.96 5.24,0 10.05,-1.86 13.79,-4.96l-0.02 -0.02c1.06,-0.87 2.03,-1.84 2.9,-2.9l0.02 0.02c3.1,-3.75 4.96,-8.55 4.96,-13.79 0,-5.24 -1.86,-10.04 -4.96,-13.79l-0.01 0.01c-0.87,-1.06 -1.84,-2.03 -2.9,-2.9l0.02 -0.02c-3.74,-3.1 -8.55,-4.96 -13.79,-4.96 -5.24,0 -10.05,1.86 -13.79,4.96z"/>
 </g>
</svg>
