<?xml version="1.0" encoding="UTF-8"?>
<!DOCTYPE svg PUBLIC "-//W3C//DTD SVG 1.1//EN" "http://www.w3.org/Graphics/SVG/1.1/DTD/svg11.dtd">
<!-- Creator: CorelDRAW 2019 (64-Bit) -->
<svg xmlns="http://www.w3.org/2000/svg" xml:space="preserve" width="7.317mm" height="4.5776mm" version="1.1" style="shape-rendering:geometricPrecision; text-rendering:geometricPrecision; image-rendering:optimizeQuality; fill-rule:evenodd; clip-rule:evenodd"
viewBox="0 0 143.58 89.82"
 xmlns:xlink="http://www.w3.org/1999/xlink">
 <defs>
  <style type="text/css">
   <![CDATA[
    .fil0 {fill:black;fill-rule:nonzero}
   ]]>
  </style>
 </defs>
 <g id="Layer_x0020_1">
  <metadata id="CorelCorpID_0Corel-Layer"/>
  <path class="fil0" d="M142.4 89.57l-29.39 0c-1.31,0.16 -2.64,0.24 -3.99,0.25l-0.21 0c-1.06,-0.01 -2.09,-0.1 -3.11,-0.25l-103.8 0c-0.2,0.16 -0.45,0.25 -0.73,0.25 -0.65,0 -1.18,-0.53 -1.18,-1.18 0,-2.14 0.08,-4.27 0.23,-6.37l0 -81.03c0,-0.65 0.53,-1.18 1.18,-1.18l84.07 0c0.98,-0.03 1.97,-0.05 2.96,-0.06l0.21 -0c0.79,0 1.57,0.02 2.35,0.06l51.4 0c0.65,0 1.18,0.53 1.18,1.18l0 0.03 0 87.13c0,0.65 -0.53,1.18 -1.18,1.18zm-139.81 -22.29c3.93,-15.91 12.15,-30.12 23.36,-41.34 1.33,-1.33 2.7,-2.62 4.12,-3.86l-27.48 -18.63 0 63.83zm29.33 -46.78c10.31,-8.59 22.6,-14.88 36.08,-18.09l-62.76 0 26.68 18.09zm72.73 -18.09c8.71,2.67 16.49,7.44 22.77,13.71l0.29 0.29 12.12 -14 -35.18 0zm24.68 15.72c5.41,5.98 9.52,13.15 11.9,21.08l0 -34.82 -11.9 13.74zm11.9 49.48c-1.76,4.56 -4.45,8.65 -7.84,12.04 -3.21,3.21 -7.05,5.8 -11.32,7.56l19.17 0 0 -19.6zm-42.54 19.6c-1.86,-1.01 -3.56,-2.28 -5.05,-3.76 -3.94,-3.93 -6.37,-9.38 -6.37,-15.39 0,-2.23 0.52,-4.34 1.44,-6.22l-56.62 -38.39c-1.54,1.33 -3.03,2.72 -4.46,4.16 -14.22,14.22 -23.49,33.39 -25.03,54.72l0 4.88 96.09 0zm-8.78 -27.39c0.45,-0.63 0.95,-1.22 1.5,-1.77 0.35,-0.35 0.71,-0.67 1.09,-0.98l33.66 -38.87 -0.41 -0.41c-8.99,-8.99 -21.22,-14.75 -34.81,-15.38l-5.48 0c-19.53,0.71 -37.39,7.89 -51.51,19.47l55.96 37.94zm8.07 -5.49c1.04,-0.26 2.12,-0.4 3.23,-0.42l0.2 -0c2.41,0.06 4.58,1.05 6.16,2.64l0.06 0.06c1.59,1.62 2.58,3.85 2.58,6.3 0,1.74 -0.71,3.33 -1.85,4.47 -1.15,1.15 -2.73,1.85 -4.47,1.85 -1.02,0 -1.95,-0.45 -2.61,-1.17 -0.64,-0.69 -1.04,-1.64 -1.04,-2.69 0,-0.65 0.53,-1.18 1.18,-1.18 0.65,0 1.18,0.53 1.18,1.18 0,0.43 0.16,0.82 0.41,1.09 0.23,0.25 0.54,0.4 0.88,0.4 1.1,0 2.09,-0.44 2.81,-1.16 0.71,-0.72 1.16,-1.71 1.16,-2.81 0,-1.81 -0.72,-3.45 -1.89,-4.64l-0.05 -0.05c-1.18,-1.18 -2.81,-1.92 -4.6,-1.94 -2.72,0.03 -5.22,0.97 -7.2,2.53l-2.9 3.35c-1,1.74 -1.58,3.75 -1.58,5.91 0,5.36 2.17,10.22 5.68,13.72 2.81,2.81 6.48,4.76 10.59,5.43l6.98 0c7.32,-0.91 13.88,-4.27 18.84,-9.22 5.85,-5.85 9.47,-13.95 9.47,-22.89 0,-13.52 -5.07,-25.84 -13.42,-35.17l-29.79 34.4z"/>
 </g>
</svg>
