<?xml version="1.0" encoding="UTF-8"?>
<!DOCTYPE svg PUBLIC "-//W3C//DTD SVG 1.1//EN" "http://www.w3.org/Graphics/SVG/1.1/DTD/svg11.dtd">
<!-- Creator: CorelDRAW 2019 (64-Bit) -->
<svg xmlns="http://www.w3.org/2000/svg" xml:space="preserve" width="16.5881mm" height="12.8956mm" version="1.1" style="shape-rendering:geometricPrecision; text-rendering:geometricPrecision; image-rendering:optimizeQuality; fill-rule:evenodd; clip-rule:evenodd"
viewBox="0 0 213.03 165.61"
 xmlns:xlink="http://www.w3.org/1999/xlink">
 <defs>
  <style type="text/css">
   <![CDATA[
    .str0 {stroke:black;stroke-width:4.35;stroke-linecap:round;stroke-linejoin:round;stroke-miterlimit:22.9256}
    .fil0 {fill:none}
    .fil1 {fill:white}
    .fil2 {fill:black;fill-rule:nonzero}
   ]]>
  </style>
 </defs>
 <g id="Layer_x0020_1">
  <metadata id="CorelCorpID_0Corel-Layer"/>
  <line class="fil0 str0" x1="40.12" y1="82.8" x2="172.91" y2= "82.8" />
  <g>
   <polygon class="fil1" points="2.18,2.18 40.12,2.18 40.12,163.43 2.18,163.43 "/>
   <path id="1" class="fil2" d="M40.12 4.35l-37.94 0 0 -4.35 37.94 0 2.18 2.18 -2.18 2.18zm0 -4.35c1.2,0 2.18,0.97 2.18,2.18 0,1.2 -0.97,2.18 -2.18,2.18l0 -4.35zm-2.18 163.43l0 -161.26 4.35 0 0 161.26 -2.18 2.18 -2.18 -2.18zm4.35 0c0,1.2 -0.97,2.18 -2.18,2.18 -1.2,0 -2.18,-0.97 -2.18,-2.18l4.35 0zm-40.12 -2.18l37.94 0 0 4.35 -37.94 0 -2.18 -2.18 2.18 -2.18zm0 4.35c-1.2,0 -2.18,-0.97 -2.18,-2.18 0,-1.2 0.97,-2.18 2.18,-2.18l0 4.35zm2.18 -163.43l0 161.26 -4.35 0 0 -161.26 2.18 -2.18 2.18 2.18zm-4.35 0c0,-1.2 0.97,-2.18 2.18,-2.18 1.2,0 2.18,0.97 2.18,2.18l-4.35 0z"/>
  </g>
  <g>
   <polygon class="fil1" points="97.03,2.18 59.09,2.18 59.09,163.43 97.03,163.43 "/>
   <path id="1" class="fil2" d="M59.09 4.35l-2.18 -2.18 2.18 -2.18 37.94 0 0 4.35 -37.94 0zm0 -4.35l0 4.35c-1.2,0 -2.18,-0.97 -2.18,-2.18 0,-1.2 0.97,-2.18 2.18,-2.18zm2.18 163.43l-2.18 2.18 -2.18 -2.18 0 -161.26 4.35 0 0 161.26zm-4.35 0l4.35 0c0,1.2 -0.97,2.18 -2.18,2.18 -1.2,0 -2.18,-0.97 -2.18,-2.18zm40.12 -2.18l2.18 2.18 -2.18 2.18 -37.94 0 0 -4.35 37.94 0zm0 4.35l0 -4.35c1.2,0 2.18,0.97 2.18,2.18 0,1.2 -0.97,2.18 -2.18,2.18zm-2.18 -163.43l2.18 -2.18 2.18 2.18 0 161.26 -4.35 0 0 -161.26zm4.35 0l-4.35 0c0,-1.2 0.97,-2.18 2.18,-2.18 1.2,0 2.18,0.97 2.18,2.18z"/>
  </g>
  <g>
   <polygon class="fil1" points="116,2.18 153.94,2.18 153.94,163.43 116,163.43 "/>
   <path id="1" class="fil2" d="M153.94 4.35l-37.94 0 0 -4.35 37.94 0 2.18 2.18 -2.18 2.18zm0 -4.35c1.2,0 2.18,0.97 2.18,2.18 0,1.2 -0.97,2.18 -2.18,2.18l0 -4.35zm-2.18 163.43l0 -161.26 4.35 0 0 161.26 -2.18 2.18 -2.18 -2.18zm4.35 0c0,1.2 -0.97,2.18 -2.18,2.18 -1.2,0 -2.18,-0.97 -2.18,-2.18l4.35 0zm-40.12 -2.18l37.94 0 0 4.35 -37.94 0 -2.18 -2.18 2.18 -2.18zm0 4.35c-1.2,0 -2.18,-0.97 -2.18,-2.18 0,-1.2 0.97,-2.18 2.18,-2.18l0 4.35zm2.18 -163.43l0 161.26 -4.35 0 0 -161.26 2.18 -2.18 2.18 2.18zm-4.35 0c0,-1.2 0.97,-2.18 2.18,-2.18 1.2,0 2.18,0.97 2.18,2.18l-4.35 0z"/>
  </g>
  <g>
   <polygon class="fil1" points="210.85,2.18 172.91,2.18 172.91,163.43 210.85,163.43 "/>
   <path id="1" class="fil2" d="M172.91 4.35l-2.18 -2.18 2.18 -2.18 37.94 0 0 4.35 -37.94 0zm0 -4.35l0 4.35c-1.2,0 -2.18,-0.97 -2.18,-2.18 0,-1.2 0.97,-2.18 2.18,-2.18zm2.18 163.43l-2.18 2.18 -2.18 -2.18 0 -161.26 4.35 0 0 161.26zm-4.35 0l4.35 0c0,1.2 -0.97,2.18 -2.18,2.18 -1.2,0 -2.18,-0.97 -2.18,-2.18zm40.12 -2.18l2.18 2.18 -2.18 2.18 -37.94 0 0 -4.35 37.94 0zm0 4.35l0 -4.35c1.2,0 2.18,0.97 2.18,2.18 0,1.2 -0.97,2.18 -2.18,2.18zm-2.18 -163.43l2.18 -2.18 2.18 2.18 0 161.26 -4.35 0 0 -161.26zm4.35 0l-4.35 0c0,-1.2 0.97,-2.18 2.18,-2.18 1.2,0 2.18,0.97 2.18,2.18z"/>
  </g>
 </g>
</svg>
