<?xml version="1.0" encoding="UTF-8"?>
<!DOCTYPE svg PUBLIC "-//W3C//DTD SVG 1.1//EN" "http://www.w3.org/Graphics/SVG/1.1/DTD/svg11.dtd">
<!-- Creator: CorelDRAW 2019 (64-Bit) -->
<svg xmlns="http://www.w3.org/2000/svg" xml:space="preserve" width="7.3469mm" height="5.7116mm" version="1.1" style="shape-rendering:geometricPrecision; text-rendering:geometricPrecision; image-rendering:optimizeQuality; fill-rule:evenodd; clip-rule:evenodd"
viewBox="0 0 45.01 34.99"
 xmlns:xlink="http://www.w3.org/1999/xlink">
 <defs>
  <style type="text/css">
   <![CDATA[
    .fil0 {fill:black;fill-rule:nonzero}
   ]]>
  </style>
 </defs>
 <g id="Layer_x0020_1">
  <metadata id="CorelCorpID_0Corel-Layer"/>
  <path class="fil0" d="M44.09 0.92l-7.1 0 0 33.15 7.1 0 0 -33.15zm-35.15 16.12l3.09 0 0 -16.58c0,-0.25 0.21,-0.46 0.46,-0.46l8.02 0c0.25,0 0.46,0.21 0.46,0.46l0 16.58 3.09 0 0 -16.58c0,-0.25 0.21,-0.46 0.46,-0.46l8.02 0c0.25,0 0.46,0.21 0.46,0.46l0 16.58 3.09 0 0 -16.58c0,-0.25 0.21,-0.46 0.46,-0.46l8.02 0c0.25,0 0.46,0.21 0.46,0.46l0 34.07c0,0.25 -0.21,0.46 -0.46,0.46l-8.02 0c-0.25,0 -0.46,-0.21 -0.46,-0.46l0 -16.58 -3.09 0 0 16.58c0,0.25 -0.21,0.46 -0.46,0.46l-8.02 0c-0.25,0 -0.46,-0.21 -0.46,-0.46l0 -16.58 -3.09 0 0 16.58c0,0.25 -0.21,0.46 -0.46,0.46l-8.02 0c-0.25,0 -0.46,-0.21 -0.46,-0.46l0 -16.58 -3.09 0 0 16.58c0,0.25 -0.21,0.46 -0.46,0.46l-8.02 0c-0.25,0 -0.46,-0.21 -0.46,-0.46l0 -34.07c0,-0.25 0.21,-0.46 0.46,-0.46l8.02 0c0.25,0 0.46,0.21 0.46,0.46l0 16.58zm23.13 -16.12l-7.1 0c0,11.05 0,22.1 0,33.15l7.1 0c0,-11.05 0,-22.1 0,-33.15zm-12.02 0l-7.1 0c0,11.05 0,22.1 0,33.15l7.1 0c0,-11.05 0,-22.1 0,-33.15zm-12.02 0l-7.1 0 0 33.15 7.1 0 0 -33.15z"/>
 </g>
</svg>
