<?xml version="1.0" encoding="UTF-8" standalone="no"?>
<!-- Created with Inkscape (http://www.inkscape.org/) -->

<svg
   xmlns:dc="http://purl.org/dc/elements/1.1/"
   xmlns:cc="http://creativecommons.org/ns#"
   xmlns:rdf="http://www.w3.org/1999/02/22-rdf-syntax-ns#"
   xmlns:svg="http://www.w3.org/2000/svg"
   xmlns="http://www.w3.org/2000/svg"
   xmlns:sodipodi="http://sodipodi.sourceforge.net/DTD/sodipodi-0.dtd"
   xmlns:inkscape="http://www.inkscape.org/namespaces/inkscape"
   width="85"
   height="85"
   viewBox="0 0 22.489583 22.489584"
   version="1.1"
   id="svg8"
   inkscape:version="0.92.4 (5da689c313, 2019-01-14)"
   sodipodi:docname="culture_guide.svg">
  <defs
     id="defs2">
    <style
       id="style3753"
       type="text/css"><![CDATA[
    .fil0 {fill:black;fill-rule:nonzero}
   ]]></style>
  </defs>
  <sodipodi:namedview
     id="base"
     pagecolor="#ffffff"
     bordercolor="#666666"
     borderopacity="1.0"
     inkscape:pageopacity="0.0"
     inkscape:pageshadow="2"
     inkscape:zoom="5.6"
     inkscape:cx="-27.172199"
     inkscape:cy="67.543498"
     inkscape:document-units="px"
     inkscape:current-layer="layer1"
     showgrid="true"
     units="px"
     objecttolerance="20"
     gridtolerance="10000"
     inkscape:window-width="1366"
     inkscape:window-height="715"
     inkscape:window-x="-8"
     inkscape:window-y="-8"
     inkscape:window-maximized="1">
    <sodipodi:guide
       position="0,0"
       orientation="0,80"
       id="guide4520"
       inkscape:locked="false" />
    <sodipodi:guide
       position="21.166666,0"
       orientation="-80,0"
       id="guide4522"
       inkscape:locked="false" />
    <sodipodi:guide
       position="21.166666,21.166666"
       orientation="0,-80"
       id="guide4524"
       inkscape:locked="false" />
    <sodipodi:guide
       position="0,21.166666"
       orientation="80,0"
       id="guide4526"
       inkscape:locked="false" />
    <inkscape:grid
       type="xygrid"
       id="grid4528" />
  </sodipodi:namedview>
  <metadata
     id="metadata5">
    <rdf:RDF>
      <cc:Work
         rdf:about="">
        <dc:format>image/svg+xml</dc:format>
        <dc:type
           rdf:resource="http://purl.org/dc/dcmitype/StillImage" />
        <dc:title />
      </cc:Work>
    </rdf:RDF>
  </metadata>
  <g
     inkscape:label="Camada 1"
     inkscape:groupmode="layer"
     id="layer1"
     transform="translate(0,-274.51038)">
    <g
       style="clip-rule:evenodd;fill:#000000;fill-opacity:1;fill-rule:evenodd;image-rendering:optimizeQuality;shape-rendering:geometricPrecision;text-rendering:geometricPrecision"
       id="g3771"
       transform="matrix(0.21409287,0,0,0.21409305,6.5720936,277.81767)">
      <g
         id="Layer_x0020_1"
         style="fill:#000000;fill-opacity:1">
        <metadata
           id="CorelCorpID_0Corel-Layer" />
        <path
           id="path3758"
           d="m 21.82,35.13 4.96,-8.59 c -1.5,-0.71 -3.19,-1.11 -4.96,-1.11 -1.77,0 -3.46,0.4 -4.96,1.11 z M 27.76,24.85 40.99,1.95 H 2.67 l 13.23,22.9 c 1.79,-0.87 3.81,-1.36 5.94,-1.36 2.13,0 4.14,0.49 5.94,1.36 z m 1.68,0.97 c 0.72,0.48 1.38,1.03 1.99,1.64 2.46,2.46 3.98,5.86 3.98,9.61 0,3.75 -1.52,7.14 -3.98,9.6 -0.61,0.61 -1.27,1.16 -1.99,1.65 l 14.07,24.37 c 0.27,0.46 0.11,1.06 -0.36,1.32 -0.15,0.09 -0.32,0.13 -0.48,0.13 L 0.98,74.15 c -0.54,0 -0.97,-0.44 -0.97,-0.97 0,-0.21 0.07,-0.41 0.18,-0.57 L 14.21,48.32 C 13.49,47.83 12.83,47.28 12.22,46.68 L 12.17,46.62 C 9.74,44.16 8.24,40.79 8.24,37.07 c 0,-3.75 1.52,-7.15 3.98,-9.61 0.61,-0.61 1.28,-1.16 1.99,-1.64 L 0.19,1.54 C 0.07,1.38 0.01,1.18 0.01,0.97 0.01,0.43 0.45,0 0.98,0 h 41.69 c 0.16,0.01 0.33,0.05 0.48,0.13 0.46,0.27 0.62,0.86 0.36,1.32 L 33.09,19.5 29.44,25.81 Z m -1.68,23.47 c -1.79,0.87 -3.81,1.36 -5.94,1.36 -2.13,0 -4.14,-0.49 -5.94,-1.36 L 2.65,72.2 H 40.97 L 31.39,55.61 27.74,49.29 Z m 2.29,-20.45 c -0.49,-0.49 -1.02,-0.93 -1.59,-1.33 l -5.52,9.56 5.52,9.56 c 0.57,-0.4 1.1,-0.84 1.59,-1.33 2.11,-2.1 3.41,-5.01 3.41,-8.23 0,-3.21 -1.3,-6.13 -3.41,-8.23 z M 15.18,27.51 c -0.57,0.4 -1.1,0.84 -1.59,1.33 -2.1,2.1 -3.41,5.02 -3.41,8.23 0,3.19 1.28,6.08 3.36,8.18 l 0.05,0.05 c 0.49,0.49 1.02,0.93 1.59,1.33 l 5.52,-9.56 z m 1.68,20.09 c 1.5,0.71 3.19,1.11 4.96,1.11 1.77,0 3.45,-0.4 4.96,-1.11 l -4.96,-8.59 z"
           class="fil0"
           inkscape:connector-curvature="0"
           style="fill:#000000;fill-opacity:1;fill-rule:nonzero" />
      </g>
    </g>
  </g>
</svg>
