<?xml version="1.0" encoding="UTF-8"?>
<!DOCTYPE svg PUBLIC "-//W3C//DTD SVG 1.1//EN" "http://www.w3.org/Graphics/SVG/1.1/DTD/svg11.dtd">
<!-- Creator: CorelDRAW 2019 (64-Bit) -->
<svg xmlns="http://www.w3.org/2000/svg" xml:space="preserve" width="7.3802mm" height="7.3802mm" version="1.1" style="shape-rendering:geometricPrecision; text-rendering:geometricPrecision; image-rendering:optimizeQuality; fill-rule:evenodd; clip-rule:evenodd"
viewBox="0 0 117.45 117.45"
 xmlns:xlink="http://www.w3.org/1999/xlink">
 <defs>
  <style type="text/css">
   <![CDATA[
    .fil0 {fill:white}
    .fil1 {fill:black;fill-rule:nonzero}
   ]]>
  </style>
 </defs>
 <g id="Layer_x0020_1">
  <metadata id="CorelCorpID_0Corel-Layer"/>
  <circle class="fil0" cx="58.73" cy="58.73" r="57.27"/>
  <path class="fil1" d="M58.73 0c16.22,0 30.9,6.58 41.53,17.2 10.62,10.63 17.2,25.31 17.2,41.53 0,16.22 -6.58,30.9 -17.2,41.53 -10.63,10.63 -25.31,17.2 -41.53,17.2 -16.22,0 -30.9,-6.57 -41.53,-17.2 -10.63,-10.63 -17.2,-25.31 -17.2,-41.53 0,-16.22 6.58,-30.9 17.2,-41.53 10.63,-10.62 25.31,-17.2 41.53,-17.2zm42.19 22.2l-6.64 -1.11 -4.4 -6.59c-0.07,-0.11 -0.18,-0.21 -0.3,-0.27 -0.12,-0.06 -0.26,-0.1 -0.39,-0.1l-13.79 0.01c-0.12,0 -0.23,0.02 -0.33,0.06 -0.09,0.04 -0.18,0.1 -0.27,0.18l-6.9 6.89c-0.1,0.11 -0.17,0.22 -0.21,0.33 -0.04,0.12 -0.05,0.25 -0.03,0.39l2.3 16.08c0.02,0.14 0.08,0.28 0.17,0.39 0.09,0.12 0.21,0.21 0.34,0.27l16.09 6.89 0.27 0.07 0.26 -0.02 8.84 -2.21 6.21 4.15c0,2.86 -0.17,6.15 0.01,8.94l0.07 0.21 9.1 18.18 -0.01 2.47c2.08,-5.84 3.2,-12.13 3.2,-18.68 0,-13.97 -5.13,-26.74 -13.61,-36.53zm7.48 61.98l0.03 -8.57 -8.83 -17.63c-0.12,-0.25 -0.22,-0.53 -0.28,-0.8 -0.06,-0.28 -0.09,-0.57 -0.09,-0.85l-0.01 -7.19 -3.83 -2.56 -7.58 1.9c-0.4,0.1 -0.81,0.14 -1.21,0.11 -0.42,-0.03 -0.82,-0.13 -1.19,-0.29l-16.08 -6.89c-0.6,-0.25 -1.12,-0.66 -1.5,-1.16 -0.39,-0.5 -0.65,-1.1 -0.75,-1.76l-2.3 -16.1c-0.08,-0.58 -0.03,-1.16 0.16,-1.71 0.18,-0.55 0.49,-1.06 0.91,-1.48l6.9 -6.89c0.35,-0.35 0.77,-0.63 1.22,-0.82 0.46,-0.19 0.95,-0.29 1.43,-0.29l12.6 0c-7.87,-4.86 -17.04,-7.82 -26.87,-8.23l-0.56 1.67c-0.18,0.56 -0.5,1.07 -0.9,1.48 -0.4,0.41 -0.9,0.72 -1.47,0.91l-5.58 1.86 -6.18 10.29c-0.15,0.26 -0.35,0.51 -0.57,0.73 -0.22,0.22 -0.46,0.41 -0.72,0.56l-11.49 6.89c-0.22,0.13 -0.45,0.25 -0.68,0.33 -0.25,0.08 -0.49,0.14 -0.72,0.18l-12.8 1.83c0.17,2.01 0.68,5.2 1.42,7.77 0.34,1.17 0.67,2.16 0.94,2.72 0.79,-0.68 1.91,-1.59 2.87,-2.29 1.19,-0.86 2.34,-1.49 3.06,-1.37 0.59,0.1 1.15,0.34 1.62,0.68 0.47,0.35 0.87,0.81 1.14,1.35l3.55 7.11 13.77 0c0.65,0 1.29,0.18 1.85,0.49 0.55,0.31 1.03,0.77 1.37,1.34l5.8 9.66c2.05,0 5.91,-0.37 7.8,0.08 1.02,0.21 1.86,0.8 2.39,1.6 0.53,0.8 0.76,1.81 0.56,2.82l-2.3 11.49c-0.07,0.35 -0.2,0.7 -0.38,1.03 -0.17,0.32 -0.39,0.62 -0.65,0.88l-8.09 8.1 0 5.34c0,0.59 -0.14,1.16 -0.4,1.68 -0.26,0.52 -0.64,0.98 -1.1,1.33l-7.69 5.76 0 6.25c0,1.04 -0.42,1.98 -1.1,2.66 -0.69,0.68 -1.63,1.1 -2.66,1.1 -0.2,0 -0.4,-0.02 -0.6,-0.05l-0.58 -0.15 -6.88 -2.3c-0.53,-0.18 -1.01,-0.46 -1.39,-0.83 -0.38,-0.36 -0.68,-0.78 -0.88,-1.26 -1.28,-2.26 -3.71,-6 -4.63,-8.21 -0.09,-0.22 -0.16,-0.45 -0.2,-0.69 -0.05,-0.24 -0.07,-0.48 -0.07,-0.71l0 -19.91 -8.48 -1.69c-0.56,-0.12 -1.09,-0.36 -1.54,-0.7 -0.46,-0.34 -0.83,-0.79 -1.09,-1.31l-4.59 -9.2c-0.13,-0.25 -0.23,-0.53 -0.29,-0.81 -0.07,-0.3 -0.11,-0.59 -0.11,-0.87l0 -6.89c0,-0.49 0.1,-0.98 0.29,-1.44 0.19,-0.45 0.46,-0.87 0.82,-1.22l1.35 -1.35 -8.83 -5.83c-1.68,5.31 -2.58,10.96 -2.58,16.82 0,15.41 6.25,29.36 16.34,39.46 10.1,10.1 24.05,16.34 39.46,16.34 15.41,0 29.36,-6.25 39.46,-16.34 4.09,-4.09 7.54,-8.81 10.21,-14zm-14.31 -68.63l1.92 2.87 1.6 0.27c-1.13,-1.09 -2.3,-2.14 -3.51,-3.14zm-87.6 23.51l12.43 8.2 -3.87 3.88c-0.08,0.08 -0.15,0.18 -0.19,0.27 -0.04,0.09 -0.06,0.21 -0.06,0.33l0 6.89 0.02 0.2 0.07 0.18 4.59 9.19c0.06,0.11 0.15,0.22 0.24,0.29 0.1,0.08 0.22,0.13 0.35,0.16l10.83 2.15c0,4.08 -0.57,20.09 0.03,22.55 1.13,1.99 3.93,6.35 4.62,8.2 0.04,0.11 0.11,0.21 0.2,0.29 0.09,0.08 0.2,0.15 0.31,0.19 1.39,0.46 6.06,2.26 7.15,2.34 0.23,0 0.45,-0.09 0.6,-0.24 0.15,-0.15 0.24,-0.36 0.24,-0.6l0 -7.7 8.86 -6.65c0.11,-0.08 0.2,-0.19 0.25,-0.3 0.05,-0.11 0.08,-0.24 0.08,-0.38l0 -6.55 8.95 -8.95 0.15 -0.2 0.08 -0.23 2.3 -11.49c0.04,-0.23 -0,-0.46 -0.12,-0.63 -0.11,-0.17 -0.28,-0.29 -0.47,-0.35 -2.15,-0.32 -6.49,-0.03 -8.95,-0.03l-6.66 -11.09c-0.07,-0.12 -0.18,-0.23 -0.31,-0.3 -0.12,-0.07 -0.26,-0.1 -0.41,-0.1l-15.57 0 -4.35 -8.73c-0.06,-0.12 -0.14,-0.22 -0.25,-0.3 -0.11,-0.08 -0.24,-0.14 -0.37,-0.16 -0.18,-0.03 -0.25,0.39 -0.86,0.84 -1.46,1.07 -3.21,2.56 -3.5,2.86l-0.57 0.58 -0.79 -0.18c-1.55,-0.35 -2.69,-2.54 -3.47,-5.25 -0.99,-3.46 -1.6,-8.02 -1.6,-9.83l0 -1.27 15.37 -2.19 0.17 -0.04 11.64 -6.97c0.17,-0.13 0.15,-0.11 0.28,-0.28l6.74 -11.24c2.18,-0.72 4.43,-1.55 6.62,-2.21 0.11,-0.04 0.22,-0.11 0.31,-0.2 0.09,-0.09 0.16,-0.2 0.2,-0.32l0.28 -0.82c-15.15,0.17 -28.85,6.38 -38.81,16.34 -5.56,5.56 -9.96,12.3 -12.78,19.8z"/>
 </g>
</svg>
