<?xml version="1.0" encoding="UTF-8" standalone="no"?>
<!-- Creator: CorelDRAW 2019 (64-Bit) -->

<svg
   xmlns:dc="http://purl.org/dc/elements/1.1/"
   xmlns:cc="http://creativecommons.org/ns#"
   xmlns:rdf="http://www.w3.org/1999/02/22-rdf-syntax-ns#"
   xmlns:svg="http://www.w3.org/2000/svg"
   xmlns="http://www.w3.org/2000/svg"
   xmlns:xlink="http://www.w3.org/1999/xlink"
   xmlns:sodipodi="http://sodipodi.sourceforge.net/DTD/sodipodi-0.dtd"
   xmlns:inkscape="http://www.inkscape.org/namespaces/inkscape"
   xml:space="preserve"
   width="85"
   height="85"
   version="1.1"
   style="clip-rule:evenodd;fill-rule:evenodd;image-rendering:optimizeQuality;shape-rendering:geometricPrecision;text-rendering:geometricPrecision"
   viewBox="0 0 357.90379 357.90379"
   id="svg12"
   sodipodi:docname="gabw.svg"
   inkscape:version="0.92.4 (5da689c313, 2019-01-14)"><metadata
   id="metadata16"><rdf:RDF><cc:Work
       rdf:about=""><dc:format>image/svg+xml</dc:format><dc:type
         rdf:resource="http://purl.org/dc/dcmitype/StillImage" /><dc:title /></cc:Work></rdf:RDF></metadata><sodipodi:namedview
   pagecolor="#ffffff"
   bordercolor="#666666"
   borderopacity="1"
   objecttolerance="10"
   gridtolerance="10"
   guidetolerance="10"
   inkscape:pageopacity="0"
   inkscape:pageshadow="2"
   inkscape:window-width="1366"
   inkscape:window-height="715"
   id="namedview14"
   showgrid="false"
   units="px"
   inkscape:zoom="8.4607013"
   inkscape:cx="-5.2596117"
   inkscape:cy="13.946834"
   inkscape:window-x="-8"
   inkscape:window-y="-8"
   inkscape:window-maximized="1"
   inkscape:current-layer="svg12" />
 <defs
   id="defs4"><linearGradient
   inkscape:collect="always"
   id="linearGradient827"><stop
     style="stop-color:#000000;stop-opacity:1;"
     offset="0"
     id="stop823" /><stop
     style="stop-color:#000000;stop-opacity:0;"
     offset="1"
     id="stop825" /></linearGradient>
  <style
   type="text/css"
   id="style2">
   <![CDATA[
    .fil0 {fill:white}
    .fil1 {fill:black;fill-rule:nonzero}
   ]]>
  </style>
 <linearGradient
   inkscape:collect="always"
   xlink:href="#linearGradient827"
   id="linearGradient829"
   x1="-0.5"
   y1="58.73"
   x2="117.96"
   y2="58.73"
   gradientUnits="userSpaceOnUse" /></defs>
 <g
   id="Layer_x0020_1"
   style="fill:none;fill-opacity:1;stroke:#000000;stroke-width:0.99791998;stroke-miterlimit:4;stroke-dasharray:none;stroke-opacity:1"
   transform="matrix(2.1327233,0,0,2.1327233,53.697056,53.697056)">
  <metadata
   id="CorelCorpID_0Corel-Layer" />
  <circle
   class="fil0"
   cx="58.73"
   cy="58.73"
   r="57.27"
   id="circle7"
   style="fill:none;fill-opacity:1;stroke:#000000;stroke-width:0.99791998;stroke-miterlimit:4;stroke-dasharray:none;stroke-opacity:1" />
  <path
   class="fil1"
   d="m 58.73,0 c 16.22,0 30.9,6.58 41.53,17.2 10.62,10.63 17.2,25.31 17.2,41.53 0,16.22 -6.58,30.9 -17.2,41.53 -10.63,10.63 -25.31,17.2 -41.53,17.2 -16.22,0 -30.9,-6.57 -41.53,-17.2 C 6.57,89.63 0,74.95 0,58.73 0,42.51 6.58,27.83 17.2,17.2 27.83,6.58 42.51,0 58.73,0 Z m 42.19,22.2 -6.64,-1.11 -4.4,-6.59 c -0.07,-0.11 -0.18,-0.21 -0.3,-0.27 -0.12,-0.06 -0.26,-0.1 -0.39,-0.1 L 75.4,14.14 c -0.12,0 -0.23,0.02 -0.33,0.06 -0.09,0.04 -0.18,0.1 -0.27,0.18 l -6.9,6.89 c -0.1,0.11 -0.17,0.22 -0.21,0.33 -0.04,0.12 -0.05,0.25 -0.03,0.39 l 2.3,16.08 c 0.02,0.14 0.08,0.28 0.17,0.39 0.09,0.12 0.21,0.21 0.34,0.27 l 16.09,6.89 0.27,0.07 0.26,-0.02 8.84,-2.21 6.21,4.15 c 0,2.86 -0.17,6.15 0.01,8.94 l 0.07,0.21 9.1,18.18 -0.01,2.47 c 2.08,-5.84 3.2,-12.13 3.2,-18.68 0,-13.97 -5.13,-26.74 -13.61,-36.53 z m 7.48,61.98 0.03,-8.57 -8.83,-17.63 c -0.12,-0.25 -0.22,-0.53 -0.28,-0.8 -0.06,-0.28 -0.09,-0.57 -0.09,-0.85 l -0.01,-7.19 -3.83,-2.56 -7.58,1.9 C 87.41,48.58 87,48.62 86.6,48.59 86.18,48.56 85.78,48.46 85.41,48.3 L 69.33,41.41 c -0.6,-0.25 -1.12,-0.66 -1.5,-1.16 -0.39,-0.5 -0.65,-1.1 -0.75,-1.76 l -2.3,-16.1 c -0.08,-0.58 -0.03,-1.16 0.16,-1.71 0.18,-0.55 0.49,-1.06 0.91,-1.48 l 6.9,-6.89 c 0.35,-0.35 0.77,-0.63 1.22,-0.82 0.46,-0.19 0.95,-0.29 1.43,-0.29 H 88 C 80.13,6.34 70.96,3.38 61.13,2.97 l -0.56,1.67 c -0.18,0.56 -0.5,1.07 -0.9,1.48 -0.4,0.41 -0.9,0.72 -1.47,0.91 l -5.58,1.86 -6.18,10.29 c -0.15,0.26 -0.35,0.51 -0.57,0.73 -0.22,0.22 -0.46,0.41 -0.72,0.56 l -11.49,6.89 c -0.22,0.13 -0.45,0.25 -0.68,0.33 -0.25,0.08 -0.49,0.14 -0.72,0.18 l -12.8,1.83 c 0.17,2.01 0.68,5.2 1.42,7.77 0.34,1.17 0.67,2.16 0.94,2.72 0.79,-0.68 1.91,-1.59 2.87,-2.29 1.19,-0.86 2.34,-1.49 3.06,-1.37 0.59,0.1 1.15,0.34 1.62,0.68 0.47,0.35 0.87,0.81 1.14,1.35 l 3.55,7.11 h 13.77 c 0.65,0 1.29,0.18 1.85,0.49 0.55,0.31 1.03,0.77 1.37,1.34 l 5.8,9.66 c 2.05,0 5.91,-0.37 7.8,0.08 1.02,0.21 1.86,0.8 2.39,1.6 0.53,0.8 0.76,1.81 0.56,2.82 l -2.3,11.49 c -0.07,0.35 -0.2,0.7 -0.38,1.03 -0.17,0.32 -0.39,0.62 -0.65,0.88 l -8.09,8.1 v 5.34 c 0,0.59 -0.14,1.16 -0.4,1.68 -0.26,0.52 -0.64,0.98 -1.1,1.33 l -7.69,5.76 v 6.25 c 0,1.04 -0.42,1.98 -1.1,2.66 -0.69,0.68 -1.63,1.1 -2.66,1.1 -0.2,0 -0.4,-0.02 -0.6,-0.05 l -0.58,-0.15 -6.88,-2.3 c -0.53,-0.18 -1.01,-0.46 -1.39,-0.83 -0.38,-0.36 -0.68,-0.78 -0.88,-1.26 -1.28,-2.26 -3.71,-6 -4.63,-8.21 -0.09,-0.22 -0.16,-0.45 -0.2,-0.69 C 28.02,93.55 28,93.31 28,93.08 V 73.17 l -8.48,-1.69 c -0.56,-0.12 -1.09,-0.36 -1.54,-0.7 -0.46,-0.34 -0.83,-0.79 -1.09,-1.31 L 12.3,60.27 C 12.17,60.02 12.07,59.74 12.01,59.46 11.94,59.16 11.9,58.87 11.9,58.59 V 51.7 c 0,-0.49 0.1,-0.98 0.29,-1.44 0.19,-0.45 0.46,-0.87 0.82,-1.22 l 1.35,-1.35 -8.83,-5.83 c -1.68,5.31 -2.58,10.96 -2.58,16.82 0,15.41 6.25,29.36 16.34,39.46 10.1,10.1 24.05,16.34 39.46,16.34 15.41,0 29.36,-6.25 39.46,-16.34 4.09,-4.09 7.54,-8.81 10.21,-14 z m -14.31,-68.63 1.92,2.87 1.6,0.27 C 96.48,17.6 95.31,16.55 94.1,15.55 Z m -87.6,23.51 12.43,8.2 -3.87,3.88 c -0.08,0.08 -0.15,0.18 -0.19,0.27 -0.04,0.09 -0.06,0.21 -0.06,0.33 v 6.89 l 0.02,0.2 0.07,0.18 4.59,9.19 c 0.06,0.11 0.15,0.22 0.24,0.29 0.1,0.08 0.22,0.13 0.35,0.16 L 30.9,70.8 c 0,4.08 -0.57,20.09 0.03,22.55 1.13,1.99 3.93,6.35 4.62,8.2 0.04,0.11 0.11,0.21 0.2,0.29 0.09,0.08 0.2,0.15 0.31,0.19 1.39,0.46 6.06,2.26 7.15,2.34 0.23,0 0.45,-0.09 0.6,-0.24 0.15,-0.15 0.24,-0.36 0.24,-0.6 v -7.7 l 8.86,-6.65 c 0.11,-0.08 0.2,-0.19 0.25,-0.3 0.05,-0.11 0.08,-0.24 0.08,-0.38 v -6.55 l 8.95,-8.95 0.15,-0.2 0.08,-0.23 2.3,-11.49 c 0.04,-0.23 0,-0.46 -0.12,-0.63 -0.11,-0.17 -0.28,-0.29 -0.47,-0.35 -2.15,-0.32 -6.49,-0.03 -8.95,-0.03 L 48.52,48.98 c -0.07,-0.12 -0.18,-0.23 -0.31,-0.3 -0.12,-0.07 -0.26,-0.1 -0.41,-0.1 H 32.23 l -4.35,-8.73 c -0.06,-0.12 -0.14,-0.22 -0.25,-0.3 -0.11,-0.08 -0.24,-0.14 -0.37,-0.16 -0.18,-0.03 -0.25,0.39 -0.86,0.84 -1.46,1.07 -3.21,2.56 -3.5,2.86 l -0.57,0.58 -0.79,-0.18 c -1.55,-0.35 -2.69,-2.54 -3.47,-5.25 -0.99,-3.46 -1.6,-8.02 -1.6,-9.83 v -1.27 l 15.37,-2.19 0.17,-0.04 11.64,-6.97 c 0.17,-0.13 0.15,-0.11 0.28,-0.28 L 50.67,6.42 C 52.85,5.7 55.1,4.87 57.29,4.21 57.4,4.17 57.51,4.1 57.6,4.01 57.69,3.92 57.76,3.81 57.8,3.69 L 58.08,2.87 C 42.93,3.04 29.23,9.25 19.27,19.21 13.71,24.77 9.31,31.51 6.49,39.01 Z"
   id="path9"
   style="fill:none;fill-opacity:1;fill-rule:nonzero;stroke:#000000;stroke-width:0.99791998;stroke-miterlimit:4;stroke-dasharray:none;stroke-opacity:1"
   inkscape:connector-curvature="0" />
 </g>
</svg>