<?xml version="1.0" encoding="UTF-8"?>
<!DOCTYPE svg PUBLIC "-//W3C//DTD SVG 1.1//EN" "http://www.w3.org/Graphics/SVG/1.1/DTD/svg11.dtd">
<!-- Creator: CorelDRAW 2019 (64-Bit) -->
<svg xmlns="http://www.w3.org/2000/svg" xml:space="preserve" width="13.6154mm" height="13.6154mm" version="1.1" style="shape-rendering:geometricPrecision; text-rendering:geometricPrecision; image-rendering:optimizeQuality; fill-rule:evenodd; clip-rule:evenodd"
viewBox="0 0 352.37 352.37"
 xmlns:xlink="http://www.w3.org/1999/xlink">
 <defs>
  <style type="text/css">
   <![CDATA[
    .str1 {stroke:black;stroke-width:8.77;stroke-miterlimit:22.9256}
    .str0 {stroke:black;stroke-width:8.77;stroke-miterlimit:22.9256}
    .fil1 {fill:none;fill-rule:nonzero}
    .fil0 {fill:white}
   ]]>
  </style>
 </defs>
 <g id="Layer_x0020_1">
  <metadata id="CorelCorpID_0Corel-Layer"/>
  <circle class="fil0 str0" cx="176.18" cy="176.19" r="171.8"/>
  <path class="fil1 str1" d="M305.04 62.55l-19.61 -3.27 -12.14 -18.21c-1.28,-1.91 -3.41,-3.05 -5.71,-3.07l-41.38 0c-1.83,0 -3.58,0.72 -4.88,2.02l-20.69 20.69c-1.54,1.53 -2.26,3.7 -1.95,5.85l6.89 48.27c0.35,2.39 1.92,4.42 4.14,5.36l48.27 20.69c1.39,0.6 2.92,0.72 4.39,0.35l24.63 -6.16 15.05 10.05 0 23.9c-0.01,1.07 0.23,2.12 0.69,3.09l26.89 53.71 -0.09 27.84m-315.41 -134.74l35.71 23.58 -7.84 7.85c-1.3,1.29 -2.02,3.05 -2.02,4.88l0 20.69c0,1.07 0.25,2.12 0.72,3.08l13.79 27.59c0.95,1.9 2.74,3.26 4.83,3.68l28.96 5.78 0 63.32c0,0.87 0.17,1.74 0.49,2.56l13.79 24.38c0.75,1.88 2.3,3.34 4.23,3.98l20.69 6.89c0.69,0.23 1.41,0.36 2.14,0.36 3.81,0 6.9,-3.09 6.9,-6.9l0 -20.93 24.83 -18.62c1.74,-1.3 2.76,-3.34 2.76,-5.52l0 -17.83 25.57 -25.57c0.95,-0.96 1.61,-2.18 1.88,-3.52l6.89 -34.48c0.75,-3.74 -1.67,-7.37 -5.41,-8.12 -0.44,-0.09 -0.9,-0.13 -1.34,-0.13l-23.68 0 -18.68 -31.13c-1.25,-2.08 -3.49,-3.35 -5.91,-3.35l-44.01 0 -11.85 -23.77c-0.99,-1.99 -2.88,-3.37 -5.07,-3.73 -2.18,-0.38 -15.38,10.79 -16.93,12.38 -6.93,-1.57 -11.79,-32.32 -11.79,-40.97l42.36 -6.05c0.91,-0.13 1.79,-0.44 2.57,-0.92l34.48 -20.69c0.97,-0.58 1.78,-1.39 2.36,-2.36l19.38 -32.29 18.27 -6.1c2.06,-0.68 3.68,-2.3 4.36,-4.36l2.73 -8.17"/>
 </g>
</svg>
