<?xml version="1.0" encoding="UTF-8"?>
<!DOCTYPE svg PUBLIC "-//W3C//DTD SVG 1.1//EN" "http://www.w3.org/Graphics/SVG/1.1/DTD/svg11.dtd">
<!-- Creator: CorelDRAW 2019 (64-Bit) -->
<svg xmlns="http://www.w3.org/2000/svg" xml:space="preserve" width="7.185mm" height="12.9132mm" version="1.1" style="shape-rendering:geometricPrecision; text-rendering:geometricPrecision; image-rendering:optimizeQuality; fill-rule:evenodd; clip-rule:evenodd"
viewBox="0 0 42.86 77.03"
 xmlns:xlink="http://www.w3.org/1999/xlink">
 <defs>
  <style type="text/css">
   <![CDATA[
    .str0 {stroke:black;stroke-width:2.02;stroke-miterlimit:22.9256}
    .fil0 {fill:none}
   ]]>
  </style>
 </defs>
 <g id="Layer_x0020_1">
  <metadata id="CorelCorpID_0Corel-Layer"/>
  <g id="_2255522505488">
   <rect class="fil0 str0" x="15.69" y="2.79" width="8.72" height="23.21" rx="4.36" ry="4.36"/>
   <rect class="fil0 str0" x="24.41" y="6.96" width="8.72" height="19.04" rx="4.36" ry="3.58"/>
   <rect class="fil0 str0" x="33.13" y="10.28" width="8.72" height="15.72" rx="4.36" ry="2.95"/>
   <path class="fil0 str0" d="M41.85 20.55c0,4.42 0,8.02 0,12.44 0,5.01 -5.09,6.85 -5.09,11.68 0,10.45 0,20.9 0,31.35 -8.45,0 -16.89,0 -25.34,0 0,-10.45 0,-20.21 0,-30.66 0,-9.49 -10.41,-11.51 -10.41,-20.13 0,-5.32 0,-10.64 0,-15.97 2.85,-2.55 5.71,-5.09 8.56,-7.64 4.12,-2.38 8,2.64 5.09,5.55 -1.58,1.58 -3.16,3.16 -4.74,4.74 0,3.66 0,7.33 0,10.99 7.21,-0.12 10.73,5.05 11.69,13.88"/>
  </g>
 </g>
</svg>
