<?xml version="1.0" encoding="UTF-8"?>
<!DOCTYPE svg PUBLIC "-//W3C//DTD SVG 1.1//EN" "http://www.w3.org/Graphics/SVG/1.1/DTD/svg11.dtd">
<!-- Creator: CorelDRAW 2019 (64-Bit) -->
<svg xmlns="http://www.w3.org/2000/svg" xml:space="preserve" width="4.1122mm" height="7.3905mm" version="1.1" style="shape-rendering:geometricPrecision; text-rendering:geometricPrecision; image-rendering:optimizeQuality; fill-rule:evenodd; clip-rule:evenodd"
viewBox="0 0 14.41 25.89"
 xmlns:xlink="http://www.w3.org/1999/xlink">
 <defs>
  <style type="text/css">
   <![CDATA[
    .fil0 {fill:black;fill-rule:nonzero}
   ]]>
  </style>
 </defs>
 <g id="Layer_x0020_1">
  <metadata id="CorelCorpID_0Corel-Layer"/>
  <path class="fil0" d="M6.74 0.6c0.5,0 0.95,0.2 1.27,0.53 0.33,0.33 0.53,0.78 0.53,1.27 0.31,-0.25 0.7,-0.4 1.13,-0.4 0.5,0 0.95,0.2 1.27,0.53 0.27,0.26 0.45,0.61 0.51,1 0.31,-0.26 0.71,-0.41 1.15,-0.41 0.5,0 0.95,0.2 1.28,0.53 0.33,0.33 0.53,0.78 0.53,1.28l0 2.35 -0 0.07 0 3.74c0,0.96 -0.47,1.59 -0.94,2.21 -0.39,0.52 -0.77,1.03 -0.77,1.72l0 10.88 -9.2 0 0 -10.64c0,-1.5 -0.87,-2.43 -1.72,-3.33 -0.9,-0.96 -1.78,-1.89 -1.78,-3.44l0 -5.52c0.64,-0.57 2.48,-2.38 3.05,-2.71 0.57,-0.33 1.14,-0.31 1.6,-0.1 0.24,0.11 0.45,0.28 0.61,0.48 0.11,0.13 0.19,0.29 0.25,0.44 0.32,-0.3 0.76,-0.49 1.23,-0.49zm6.99 8.09c-0.31,0.25 -0.7,0.4 -1.13,0.4 -0.5,0 -0.95,-0.2 -1.28,-0.53 -0.07,-0.07 -0.13,-0.14 -0.19,-0.22 -0.06,0.08 -0.12,0.15 -0.19,0.22 -0.33,0.33 -0.78,0.53 -1.27,0.53 -0.5,0 -0.95,-0.2 -1.27,-0.53 -0.07,-0.07 -0.13,-0.15 -0.19,-0.23 -0.06,0.08 -0.12,0.15 -0.19,0.22 -0.33,0.33 -0.78,0.53 -1.27,0.53 -0.04,0 -0.08,-0 -0.12,-0 0.52,0.82 0.84,1.93 0.98,3.26l-0.67 0.07c-0.15,-1.42 -0.51,-2.54 -1.1,-3.29 -0.57,-0.72 -1.38,-1.1 -2.48,-1.08l-0.34 0.01 0 -4.18 1.69 -1.69c0.21,-0.21 0.27,-0.47 0.23,-0.71 -0.03,-0.14 -0.1,-0.28 -0.19,-0.4 -0.1,-0.12 -0.22,-0.22 -0.36,-0.29 -0.26,-0.12 -0.6,-0.13 -0.94,0.05l-2.74 2.44 0 5.21c0,1.28 0.79,2.12 1.59,2.98 0.94,1 1.91,2.03 1.91,3.79l0 9.97 7.84 0 0 -10.2c0,-0.92 0.45,-1.52 0.91,-2.13 0.4,-0.53 0.8,-1.06 0.8,-1.8l0 -2.4zm-8.75 -1.03c-0.03,-0.12 -0.04,-0.25 -0.04,-0.38l0 -4.38 -1.26 1.26 0 3.22c0.48,0.02 0.91,0.12 1.3,0.28zm5.82 -0.33l-0 -0.04 0 -2.35 0 -0.07 0 -1.05c0,-0.31 -0.13,-0.59 -0.33,-0.79 -0.2,-0.2 -0.48,-0.33 -0.79,-0.33 -0.31,0 -0.59,0.13 -0.79,0.33 -0.2,0.2 -0.33,0.48 -0.33,0.78l0 0.01 0 3.47 0 0 0 0.01 0 0.01c0.01,0.3 0.13,0.57 0.33,0.77 0.21,0.2 0.49,0.33 0.8,0.33 0.31,0 0.59,-0.13 0.79,-0.33 0.19,-0.19 0.32,-0.46 0.33,-0.75l0 -0zm2.6 -3.19c-0.2,-0.2 -0.48,-0.33 -0.79,-0.33 -0.31,0 -0.59,0.13 -0.79,0.33 -0.2,0.2 -0.33,0.49 -0.33,0.8l0 2.35c0,0.31 0.13,0.59 0.33,0.79 0.2,0.2 0.49,0.33 0.8,0.33 0.31,0 0.59,-0.13 0.79,-0.33 0.2,-0.2 0.33,-0.49 0.33,-0.79l0 -2.35c0,-0.31 -0.13,-0.59 -0.33,-0.79zm-5.86 -2.52c-0.2,-0.2 -0.49,-0.33 -0.8,-0.33 -0.31,0 -0.59,0.13 -0.8,0.33 -0.2,0.2 -0.33,0.49 -0.33,0.8l0 4.87c0,0.31 0.13,0.59 0.33,0.79 0.2,0.2 0.48,0.33 0.8,0.33 0.31,0 0.59,-0.13 0.79,-0.33 0.2,-0.2 0.33,-0.49 0.33,-0.8l0 -4.87c0,-0.31 -0.13,-0.59 -0.33,-0.8z"/>
 </g>
</svg>
