<?xml version="1.0" encoding="UTF-8"?>
<!DOCTYPE svg PUBLIC "-//W3C//DTD SVG 1.1//EN" "http://www.w3.org/Graphics/SVG/1.1/DTD/svg11.dtd">
<!-- Creator: CorelDRAW 2019 (64-Bit) -->
<svg xmlns="http://www.w3.org/2000/svg" xml:space="preserve" width="5.6329mm" height="7.3486mm" version="1.1" style="shape-rendering:geometricPrecision; text-rendering:geometricPrecision; image-rendering:optimizeQuality; fill-rule:evenodd; clip-rule:evenodd"
viewBox="0 0 79.38 103.56"
 xmlns:xlink="http://www.w3.org/1999/xlink">
 <defs>
  <style type="text/css">
   <![CDATA[
    .fil1 {fill:black;fill-rule:nonzero}
    .fil0 {fill:black;fill-rule:nonzero}
   ]]>
  </style>
 </defs>
 <g id="Layer_x0020_1">
  <metadata id="CorelCorpID_0Corel-Layer"/>
  <g id="_2271783268160">
   <path class="fil0" d="M4.76 37.87c0,-0.58 -0.48,-1.06 -1.06,-1.06 -0.6,0 -1.08,0.48 -1.08,1.08l0 0.1 -0 -0.04 0 0.08c0.22,8.4 3.3,19.74 10.89,24.35 1.02,0.76 2.3,-0.94 1.28,-1.71l-0.14 -0.11c-7.15,-4.34 -9.48,-14.76 -9.89,-22.54l-0 -0.15 -2.14 0.02 2.14 -0.02 0 0.04 -0 -0.04z"/>
   <path class="fil0" d="M2.74 62.59l-0.04 -0.05c-0.98,-1.22 -2.48,0.24 -1.78,1.19l1.81 -1.14zm21.57 13.28c1.48,-0.3 0.95,-2.37 -0.34,-2.11 -1.48,0.23 -2.95,0.3 -4.45,0.27 -6.96,-0.17 -12.85,-5.85 -16.62,-11.19l-0.16 -0.24 0.05 0.08 -0.05 -0.08c0.07,0.13 0.03,0.06 -0.01,0l-1.8 1.13 0.05 0.08 -0.01 -0.02 0.18 0.27c2.63,4.13 7.68,8.78 12.15,10.69 1.93,0.85 4.06,1.37 6.17,1.41 1.64,0.04 3.22,-0.04 4.84,-0.29z"/>
   <path class="fil1" d="M7.62 81.73c-0.47,-0.35 -0.58,-1.02 -0.23,-1.49 0.35,-0.47 1.02,-0.58 1.49,-0.23 0.02,0.02 8.63,6.63 18.42,3.44 9.52,-3.1 8.8,-11.59 8.8,-11.62 -0.03,-0.59 0.42,-1.09 1.01,-1.12 0.59,-0.03 1.09,0.42 1.12,1.01 0,0.03 0.86,10.14 -10.27,13.76 -10.86,3.54 -20.31,-3.73 -20.34,-3.75z"/>
   <path class="fil1" d="M17.74 93.93c-0.54,-0.23 -0.79,-0.86 -0.56,-1.4 0.23,-0.54 0.86,-0.79 1.4,-0.56 0.03,0.01 9.53,4.25 17.99,-1.42 7.97,-5.34 5.36,-11.25 4.38,-13.49l-0.09 -0.19c-0.24,-0.54 0.01,-1.17 0.55,-1.41 0.54,-0.24 1.17,0.01 1.41,0.55l0.09 0.19c1.18,2.68 4.31,9.78 -5.15,16.12 -9.45,6.33 -19.99,1.63 -20.02,1.62z"/>
   <path class="fil1" d="M34.34 102.54c-0.59,-0.03 -1.04,-0.53 -1.02,-1.12 0.03,-0.59 0.53,-1.04 1.12,-1.02 0.02,0 8.87,0.69 14.09,-9.45 4.09,-7.95 -2.05,-11.79 -2.07,-11.8 -0.5,-0.32 -0.64,-0.98 -0.32,-1.48 0.32,-0.5 0.98,-0.64 1.48,-0.32 0.02,0.01 7.8,4.89 2.81,14.58 -5.86,11.4 -16.06,10.61 -16.08,10.6z"/>
   <path class="fil1" d="M54.29 101.34c-0.43,0.4 -1.11,0.37 -1.51,-0.07 -0.4,-0.43 -0.37,-1.11 0.07,-1.51 0.02,-0.01 5.63,-4.97 5.41,-12.63 -0.22,-7.32 -5.64,-8.4 -5.66,-8.41 -0.57,-0.13 -0.93,-0.7 -0.8,-1.28 0.13,-0.57 0.7,-0.93 1.28,-0.8 0.02,0 7.05,1.42 7.31,10.43 0.25,8.66 -6.09,14.25 -6.1,14.27z"/>
   <path class="fil1" d="M56.71 76.14c-0.58,0.1 -1.13,-0.28 -1.24,-0.86 -0.1,-0.58 0.28,-1.13 0.86,-1.24 0.02,-0 5.86,-1.45 9.42,4.26 5.8,9.27 -0.83,17.49 -0.85,17.51 -0.35,0.47 -1.02,0.57 -1.49,0.21 -0.47,-0.35 -0.57,-1.02 -0.21,-1.49 0.01,-0.02 5.74,-7.11 0.74,-15.1 -2.75,-4.4 -7.22,-3.29 -7.23,-3.29z"/>
   <path class="fil1" d="M59.89 71.35c-0.57,0.14 -1.15,-0.21 -1.3,-0.78 -0.14,-0.57 0.21,-1.15 0.78,-1.3 0.02,-0 6.32,-1.61 10.83,3.43 4.33,4.84 4.74,11.25 4.74,11.27 0.05,0.59 -0.39,1.11 -0.98,1.15 -0.59,0.05 -1.11,-0.39 -1.15,-0.98 0,-0.01 -0.37,-5.74 -4.2,-10.02 -3.65,-4.08 -8.71,-2.78 -8.73,-2.78z"/>
   <path class="fil1" d="M60.68 67.15c-0.51,0.29 -1.17,0.11 -1.46,-0.4 -0.29,-0.51 -0.11,-1.17 0.4,-1.46 0.01,-0.01 3.65,-2.09 9.16,-0.33 6.68,2.14 9.46,10.54 9.47,10.57 0.2,0.55 -0.08,1.17 -0.63,1.37 -0.55,0.2 -1.17,-0.08 -1.37,-0.63 -0.01,-0.02 -2.49,-7.48 -8.12,-9.28 -4.6,-1.47 -7.43,0.15 -7.44,0.16z"/>
   <path class="fil1" d="M60.27 63.41c-0.2,0.55 -0.82,0.83 -1.37,0.63 -0.55,-0.2 -0.83,-0.82 -0.63,-1.37 0,-0.01 1.68,-4.49 7.74,-4.49 7.57,0 12.98,6.67 13,6.69 0.38,0.45 0.32,1.13 -0.13,1.51 -0.45,0.38 -1.13,0.32 -1.51,-0.13 -0.01,-0.02 -4.81,-5.93 -11.37,-5.93 -4.58,0 -5.74,3.09 -5.74,3.09z"/>
   <path class="fil1" d="M57.2 59.84c-0.33,0.49 -0.99,0.62 -1.48,0.3 -0.49,-0.33 -0.62,-0.99 -0.3,-1.48 0,-0.01 2.07,-3.42 6.94,-4.99 6.85,-2.2 13.46,1.62 13.48,1.63 0.52,0.28 0.71,0.93 0.44,1.45 -0.28,0.52 -0.93,0.71 -1.45,0.44 -0.02,-0.01 -5.87,-3.39 -11.82,-1.48 -4.11,1.32 -5.81,4.14 -5.81,4.14z"/>
   <path class="fil1" d="M54.65 58.94c-0.05,0.59 -0.58,1.02 -1.16,0.96 -0.59,-0.05 -1.02,-0.58 -0.96,-1.16 0,-0.03 0.77,-11.22 15.67,-11.22 0.59,0 1.07,0.48 1.07,1.07 0,0.59 -0.48,1.07 -1.07,1.07 -12.92,0 -13.54,9.25 -13.54,9.27z"/>
   <path class="fil1" d="M51.19 58.29c0.21,0.55 -0.06,1.17 -0.61,1.38 -0.55,0.21 -1.17,-0.06 -1.38,-0.61 -0.01,-0.03 -3.95,-9.89 9.15,-15.02 0.55,-0.21 1.17,0.06 1.38,0.61 0.21,0.55 -0.06,1.17 -0.61,1.38 -11.11,4.36 -7.95,12.24 -7.94,12.27z"/>
   <path class="fil1" d="M48.48 59.26c0.25,0.53 0.02,1.17 -0.51,1.42 -0.53,0.25 -1.17,0.02 -1.42,-0.51 -0.01,-0.03 -4.74,-9.94 3.01,-15.7 0.47,-0.35 1.14,-0.25 1.49,0.22 0.35,0.47 0.25,1.14 -0.22,1.49 -6.34,4.72 -2.36,13.05 -2.35,13.08z"/>
   <path class="fil1" d="M46.12 60.42c0.55,0.22 0.81,0.84 0.59,1.39 -0.22,0.55 -0.84,0.81 -1.39,0.59 -0.02,-0.01 -8.29,-3.32 -3.05,-14.84 0.24,-0.53 0.88,-0.77 1.41,-0.53 0.53,0.24 0.77,0.88 0.53,1.41 -4.32,9.49 1.88,11.97 1.9,11.97z"/>
   <path class="fil1" d="M44.84 62.42c0.59,0.07 1,0.61 0.93,1.19 -0.07,0.59 -0.61,1 -1.19,0.93 -0.02,-0 -8.87,-0.76 -8.27,-11.24 0.03,-0.59 0.54,-1.04 1.13,-1.01 0.59,0.03 1.04,0.54 1.01,1.13 -0.48,8.41 6.38,8.99 6.39,8.99z"/>
   <path class="fil1" d="M44.41 64.89c0.57,-0.17 1.16,0.16 1.33,0.72 0.17,0.57 -0.16,1.16 -0.72,1.33 -0.03,0.01 -9.27,2.71 -11.65,-6.46 -0.15,-0.57 0.2,-1.15 0.77,-1.3 0.57,-0.15 1.15,0.2 1.3,0.77 1.82,7.03 8.96,4.95 8.98,4.94z"/>
   <path class="fil1" d="M45.13 67.05c0.49,-0.33 1.16,-0.19 1.48,0.3 0.33,0.49 0.19,1.16 -0.3,1.48 -0.02,0.01 -6.57,4.45 -12.23,-1.27 -0.41,-0.42 -0.41,-1.09 0,-1.51 0.42,-0.41 1.09,-0.41 1.51,0 4.41,4.46 9.52,1 9.53,0.99z"/>
   <path class="fil1" d="M45.69 68.7c0.28,-0.52 0.93,-0.71 1.45,-0.43 0.52,0.28 0.71,0.93 0.43,1.45 -0.01,0.02 -3.49,6.27 -10.83,3.03 -0.54,-0.24 -0.78,-0.87 -0.55,-1.41 0.24,-0.54 0.87,-0.78 1.41,-0.55 5.56,2.45 8.09,-2.09 8.09,-2.1z"/>
   <path class="fil1" d="M46.67 69.94c-0.1,-0.58 0.28,-1.13 0.86,-1.24 0.58,-0.1 1.13,0.28 1.24,0.86 0,0.02 1.28,6.48 -8.11,6.96 -0.59,0.03 -1.09,-0.43 -1.12,-1.02 -0.03,-0.59 0.43,-1.09 1.02,-1.12 6.93,-0.35 6.11,-4.44 6.11,-4.45z"/>
   <path class="fil1" d="M48.53 70.69c-0.29,-0.51 -0.1,-1.17 0.41,-1.45 0.51,-0.29 1.17,-0.1 1.45,0.41 0.01,0.01 3.24,5.42 -4.91,8.83 -0.54,0.23 -1.17,-0.03 -1.4,-0.58 -0.23,-0.54 0.03,-1.17 0.58,-1.4 5.89,-2.47 3.87,-5.81 3.87,-5.82z"/>
   <path class="fil1" d="M50.83 70.93c-0.42,-0.42 -0.42,-1.1 0,-1.51 0.42,-0.42 1.1,-0.42 1.51,0 0.01,0.01 4.61,4.62 -1.01,9.45 -0.45,0.38 -1.12,0.33 -1.51,-0.11 -0.38,-0.45 -0.33,-1.12 0.11,-1.51 3.87,-3.33 0.9,-6.31 0.89,-6.31z"/>
   <path class="fil1" d="M52.69 69.99c-0.49,-0.33 -0.62,-0.99 -0.3,-1.48 0.33,-0.49 0.99,-0.62 1.48,-0.3 0,0 1.77,1.05 2.32,3.27 0.68,2.79 -0.33,5.33 -0.34,5.34 -0.26,0.53 -0.9,0.74 -1.43,0.48 -0.53,-0.26 -0.74,-0.9 -0.48,-1.43 0,-0 0.69,-1.75 0.17,-3.87 -0.33,-1.35 -1.43,-2 -1.43,-2z"/>
   <path class="fil1" d="M53.73 69.1c-0.59,0 -1.07,-0.48 -1.07,-1.07 0,-0.59 0.48,-1.07 1.07,-1.07 0,0 1.71,-0.19 3.24,1.03 2.06,1.64 2.31,4.43 2.31,4.44 0,0.59 -0.48,1.07 -1.07,1.07 -0.59,0 -1.07,-0.48 -1.07,-1.07 0,-0 -0.16,-1.71 -1.5,-2.77 -0.83,-0.66 -1.91,-0.56 -1.91,-0.56z"/>
   <path class="fil1" d="M46.49 61.91c-0.59,-0.07 -1,-0.61 -0.93,-1.19 0.07,-0.59 0.61,-1 1.19,-0.93 0.01,0 4.54,0.76 5.86,5.55 0.16,0.57 -0.18,1.16 -0.74,1.31 -0.57,0.16 -1.16,-0.18 -1.31,-0.74 -0.96,-3.46 -4.05,-3.99 -4.06,-3.99z"/>
   <path class="fil1" d="M48.45 60.28c-0.54,-0.24 -0.78,-0.87 -0.54,-1.4 0.24,-0.54 0.87,-0.78 1.4,-0.54 0.01,0.01 5.07,2.03 4.38,7.36 -0.07,0.58 -0.61,1 -1.19,0.92 -0.58,-0.07 -1,-0.61 -0.92,-1.19 0.48,-3.7 -3.12,-5.14 -3.13,-5.14z"/>
   <path class="fil1" d="M52.61 59.26c-0.23,-0.54 0.02,-1.17 0.56,-1.4 0.54,-0.23 1.17,0.02 1.4,0.56 0,0.01 1.63,3.91 -0.58,8 -0.28,0.52 -0.93,0.71 -1.45,0.44 -0.52,-0.28 -0.71,-0.93 -0.44,-1.45 1.73,-3.2 0.5,-6.15 0.5,-6.15z"/>
   <path class="fil1" d="M55.45 60.1c0,-0.59 0.48,-1.07 1.07,-1.07 0.59,0 1.07,0.48 1.07,1.07 0,0.01 -0.23,4.36 -3.66,6.98 -0.47,0.36 -1.14,0.27 -1.5,-0.2 -0.36,-0.47 -0.27,-1.14 0.2,-1.5 2.64,-2.01 2.82,-5.27 2.82,-5.28z"/>
   <path class="fil1" d="M57.64 61.9c0.29,-0.51 0.95,-0.69 1.46,-0.4 0.51,0.29 0.69,0.95 0.4,1.46 -0,0.01 -1.95,3.47 -5.17,5.05 -0.53,0.26 -1.17,0.04 -1.43,-0.48 -0.26,-0.53 -0.04,-1.17 0.48,-1.43 2.62,-1.29 4.25,-4.19 4.25,-4.2z"/>
   <path class="fil1" d="M45 65.02c-0.57,0.16 -1.16,-0.17 -1.32,-0.74 -0.16,-0.57 0.17,-1.16 0.74,-1.32 0.01,-0 4.05,-1.25 7.23,1.76 0.43,0.4 0.45,1.08 0.05,1.51 -0.4,0.43 -1.08,0.45 -1.51,0.05 -2.28,-2.16 -5.18,-1.26 -5.19,-1.26z"/>
   <path class="fil1" d="M46.64 67.61c-0.3,0.5 -0.96,0.67 -1.46,0.37 -0.5,-0.3 -0.67,-0.96 -0.37,-1.46 1.9,-3.17 6.33,-1.58 6.34,-1.58 0.54,0.23 0.79,0.86 0.56,1.4 -0.23,0.54 -0.86,0.79 -1.4,0.56 -0.01,-0 -2.66,-0.98 -3.67,0.71z"/>
   <path class="fil1" d="M50.76 65.16c0.59,0.02 1.05,0.51 1.04,1.1 -0.02,0.59 -0.51,1.05 -1.1,1.04 -2.07,-0.06 -2.65,2.25 -2.65,2.25 -0.18,0.56 -0.79,0.86 -1.35,0.68 -0.56,-0.18 -0.86,-0.79 -0.68,-1.35 0,-0.01 0.93,-3.84 4.73,-3.72z"/>
   <path class="fil1" d="M50.6 65.27c0.56,-0.17 1.16,0.14 1.34,0.7 0.17,0.56 -0.14,1.16 -0.7,1.34 -1.85,0.57 -1.36,2.1 -1.36,2.11 0.22,0.55 -0.05,1.17 -0.59,1.39 -0.55,0.22 -1.17,-0.05 -1.39,-0.59 -0,-0.01 -1.22,-3.72 2.71,-4.94z"/>
   <path class="fil1" d="M51.6 69.23c0.35,0.47 0.26,1.14 -0.21,1.49 -0.47,0.35 -1.14,0.26 -1.49,-0.21 -0.01,-0.01 -1.97,-2.69 0.03,-4.49 0.44,-0.39 1.11,-0.36 1.51,0.08 0.39,0.44 0.36,1.11 -0.08,1.51 -0.57,0.52 0.25,1.63 0.25,1.63z"/>
   <path class="fil1" d="M52.34 68.29c0.52,-0.04 1,0.31 1.12,0.83 0.13,0.57 -0.24,1.14 -0.81,1.27l-0.21 0.03c-0.23,0.01 -0.81,-0.13 -1.31,-0.43 -0.47,-0.28 -0.98,-0.72 -1.27,-1.34 -0.14,-0.29 -0.23,-0.62 -0.24,-0.97 -0.03,-0.59 0.43,-1.09 1.02,-1.12 0.59,-0.03 1.09,0.43 1.12,1.02l0.04 0.16c0.08,0.17 0.26,0.32 0.44,0.42 0.12,0.07 0.11,0.12 0.12,0.13z"/>
   <path class="fil0" d="M13.21 18.67c-1.02,1.36 0.89,2.36 1.56,1.46 1.21,-1.28 2.44,-2.52 3.74,-3.72 0.69,-0.52 0.26,-1.85 -0.65,-1.85 -0.41,0 -0.52,0.07 -0.81,0.28 -1.33,1.23 -2.6,2.5 -3.85,3.82zm63.57 -10.71c1.26,0.63 2.19,-1.3 0.94,-1.92 -1.64,-0.81 -3.28,-1.51 -4.99,-2.18 -1.32,-0.53 -2.06,1.48 -0.77,2 1.64,0.66 3.23,1.32 4.82,2.11zm-20.1 -5.66c1.61,0 1.37,-2.13 0.16,-2.13 -1.82,-0.14 -3.63,-0.2 -5.46,-0.15 -0.55,0 -1.04,0.49 -1.04,1.04 0,0.64 0.47,1.1 1.1,1.1 1.74,-0.06 3.5,0.01 5.24,0.14zm-20.55 2.91c1.33,-0.53 0.51,-2.51 -0.78,-2 -1.68,0.64 -3.39,1.4 -4.99,2.23 -1.21,0.61 -0.27,2.53 0.98,1.9 1.52,-0.8 3.17,-1.52 4.78,-2.13z"/>
   <path class="fil1" d="M52.69 68.22c0.49,-0.33 1.15,-0.2 1.48,0.28 0.33,0.49 0.2,1.15 -0.28,1.48 -1.92,1.3 -3.88,1.53 -5.57,1.05 -1.08,-0.31 -2.05,-0.9 -2.82,-1.7 -0.76,-0.78 -1.34,-1.76 -1.64,-2.84 -0.51,-1.77 -0.28,-3.82 1,-5.69 0.23,-0.33 0.49,-0.65 0.77,-0.94 1.39,-1.4 3.38,-2.24 5.47,-2.4 2.07,-0.16 4.27,0.34 6.11,1.6 0.43,0.29 0.84,0.63 1.22,1.01 1.73,1.71 2.64,3.87 2.81,6.12 0.13,1.64 -0.14,3.33 -0.75,4.92 -0.61,1.58 -1.56,3.08 -2.82,4.36 -2.06,2.09 -4.95,3.58 -8.48,3.85 -3.52,0.27 -7.04,-1.12 -9.87,-3.55 -1.65,-1.42 -3.07,-3.2 -4.12,-5.21 -1.06,-2.02 -1.75,-4.27 -1.93,-6.62 -0.32,-4.14 0.92,-8.62 4.45,-12.73 3.67,-4.26 9.63,-7.05 16,-7.46 5.74,-0.37 11.83,1.18 16.91,5.3 2.01,1.63 3.64,3.48 4.94,5.48 3.35,5.19 4.39,11.43 3.53,17.64 -0.85,6.17 -3.57,12.33 -7.72,17.44 -2.31,2.85 -5.07,5.37 -8.21,7.4 -11.58,7.48 -23.4,8.08 -33.64,4.11 -6.73,-2.61 -12.77,-7.2 -17.6,-13.1 -4.82,-5.88 -8.44,-13.09 -10.37,-20.96 -3.72,-15.21 -1.08,-32.92 11.62,-48.36 0.37,-0.45 1.05,-0.52 1.5,-0.15 0.45,0.37 0.52,1.05 0.15,1.5 -12.22,14.86 -14.77,31.88 -11.19,46.5 1.85,7.54 5.33,14.46 9.95,20.1 4.61,5.63 10.34,9.99 16.72,12.46 9.63,3.73 20.77,3.15 31.72,-3.92 2.94,-1.9 5.53,-4.27 7.7,-6.95 3.91,-4.81 6.46,-10.6 7.26,-16.38 0.79,-5.73 -0.15,-11.46 -3.21,-16.21 -1.17,-1.82 -2.66,-3.5 -4.49,-4.98 -4.62,-3.75 -10.18,-5.16 -15.43,-4.82 -5.81,0.37 -11.22,2.88 -14.51,6.71 -3.13,3.63 -4.22,7.56 -3.94,11.18 0.16,2.06 0.76,4.03 1.68,5.79 0.92,1.76 2.17,3.33 3.62,4.57 2.42,2.08 5.39,3.27 8.32,3.04 2.97,-0.23 5.39,-1.47 7.11,-3.21 1.05,-1.06 1.84,-2.31 2.34,-3.62 0.5,-1.3 0.71,-2.68 0.61,-4 -0.14,-1.76 -0.84,-3.44 -2.17,-4.75 -0.29,-0.29 -0.6,-0.54 -0.93,-0.77 -1.42,-0.97 -3.13,-1.36 -4.74,-1.23 -1.6,0.12 -3.09,0.74 -4.1,1.76 -0.2,0.2 -0.38,0.41 -0.53,0.64 -0.9,1.3 -1.05,2.7 -0.71,3.9 0.21,0.74 0.6,1.4 1.12,1.94 0.51,0.53 1.16,0.92 1.87,1.13 1.13,0.32 2.46,0.15 3.8,-0.76z"/>
   <path class="fil1" d="M51.73 67.43c0.11,0.58 -0.27,1.14 -0.85,1.25 -0.58,0.11 -1.14,-0.27 -1.25,-0.85 -0.17,-0.88 0.05,-1.64 0.5,-2.19 0.29,-0.36 0.66,-0.62 1.07,-0.78 0.4,-0.15 0.85,-0.21 1.28,-0.15 0.73,0.09 1.45,0.49 1.93,1.25 0.4,0.64 0.51,1.32 0.46,1.93 -0.08,0.84 -0.48,1.59 -0.82,1.95 -0.41,0.42 -1.09,0.44 -1.51,0.03 -0.42,-0.41 -0.44,-1.09 -0.03,-1.51 0.09,-0.09 0.2,-0.34 0.23,-0.64 0.01,-0.21 -0.02,-0.43 -0.14,-0.62 -0.11,-0.17 -0.25,-0.26 -0.39,-0.27 -0.08,-0.01 -0.17,0 -0.25,0.03 -0.07,0.03 -0.13,0.07 -0.18,0.13 -0.07,0.09 -0.1,0.24 -0.06,0.45z"/>
  </g>
 </g>
</svg>
