<?xml version="1.0" encoding="UTF-8"?>
<!DOCTYPE svg PUBLIC "-//W3C//DTD SVG 1.1//EN" "http://www.w3.org/Graphics/SVG/1.1/DTD/svg11.dtd">
<!-- Creator: CorelDRAW 2019 (64-Bit) -->
<svg xmlns="http://www.w3.org/2000/svg" xml:space="preserve" width="7.3832mm" height="6.1829mm" version="1.1" style="shape-rendering:geometricPrecision; text-rendering:geometricPrecision; image-rendering:optimizeQuality; fill-rule:evenodd; clip-rule:evenodd"
viewBox="0 0 117.39 98.3"
 xmlns:xlink="http://www.w3.org/1999/xlink">
 <defs>
  <style type="text/css">
   <![CDATA[
    .fil0 {fill:black;fill-rule:nonzero}
   ]]>
  </style>
 </defs>
 <g id="Layer_x0020_1">
  <metadata id="CorelCorpID_0Corel-Layer"/>
  <path class="fil0" d="M1.2 21.25c2.51,-1 5.04,-2.14 7.58,-3.42 2.5,-1.27 5.04,-2.7 7.62,-4.28 2.53,-1.55 4.92,-3.25 7.15,-5.08 2.22,-1.83 4.31,-3.8 6.26,-5.93l0.38 -0.42 13.09 0 0 94.2 -18.58 0 0 -68.97c-0.66,0.44 -1.35,0.89 -2.08,1.32 -1.54,0.93 -3.23,1.84 -5.06,2.73 -1.81,0.88 -3.61,1.7 -5.39,2.44 -1.77,0.74 -3.5,1.4 -5.2,1.98l-1.15 0.39 -5.83 -14.49 1.2 -0.48zm8.74 -1.13c-2.19,1.11 -4.39,2.12 -6.59,3.03l3.96 9.83c1.28,-0.46 2.58,-0.97 3.9,-1.52 1.69,-0.71 3.45,-1.51 5.25,-2.38 1.78,-0.87 3.4,-1.74 4.86,-2.62 1.45,-0.87 2.76,-1.76 3.91,-2.66l2.08 -1.62 0 71.55 13.42 0 0 -89.05 -9.39 0c-1.9,2.04 -3.95,3.96 -6.14,5.75 -2.33,1.91 -4.8,3.67 -7.43,5.29 -2.58,1.59 -5.19,3.05 -7.82,4.38zm107.45 29.03c0,15.69 -2.9,27.76 -8.69,36.22 -2.94,4.29 -6.46,7.53 -10.55,9.68 -4.09,2.16 -8.73,3.24 -13.92,3.24 -5.19,0 -9.83,-1.08 -13.92,-3.24 -4.09,-2.16 -7.6,-5.39 -10.54,-9.68 -2.91,-4.26 -5.09,-9.42 -6.54,-15.48 -1.43,-6.01 -2.15,-12.93 -2.15,-20.74 0,-3.87 0.19,-7.53 0.55,-11 0.37,-3.45 0.92,-6.7 1.67,-9.73 0.74,-3.04 1.66,-5.84 2.74,-8.41 1.09,-2.59 2.36,-4.93 3.79,-7.02 1.45,-2.11 3.04,-3.97 4.78,-5.58 1.75,-1.61 3.66,-2.98 5.72,-4.09 2.05,-1.1 4.25,-1.94 6.58,-2.5 2.32,-0.55 4.76,-0.83 7.32,-0.83 10.41,0 18.57,4.31 24.47,12.93 2.91,4.25 5.09,9.42 6.54,15.48 1.43,6.01 2.15,12.93 2.15,20.74zm-10.81 34.77c5.49,-8.02 8.23,-19.61 8.23,-34.77 0,-7.61 -0.69,-14.33 -2.08,-20.15 -1.37,-5.76 -3.43,-10.64 -6.15,-14.63 -5.38,-7.86 -12.83,-11.8 -22.34,-11.8 -2.38,0 -4.62,0.25 -6.73,0.75 -2.1,0.5 -4.08,1.26 -5.95,2.26 -1.86,1.01 -3.6,2.25 -5.19,3.72 -1.6,1.48 -3.07,3.19 -4.4,5.13 -1.34,1.96 -2.53,4.15 -3.55,6.57 -1.03,2.43 -1.9,5.11 -2.61,8.02 -0.71,2.91 -1.25,6.05 -1.61,9.4 -0.36,3.34 -0.54,6.92 -0.54,10.72 0,7.61 0.69,14.33 2.08,20.15 1.37,5.76 3.43,10.64 6.15,14.63 2.7,3.94 5.91,6.9 9.62,8.86 3.71,1.96 7.95,2.94 12.72,2.94 4.77,0 9.01,-0.98 12.72,-2.94 3.71,-1.96 6.92,-4.92 9.62,-8.86zm-8.29 -34.77c0,-2.38 -0.07,-4.66 -0.19,-6.83 -0.13,-2.23 -0.33,-4.35 -0.58,-6.37 -0.26,-2.02 -0.6,-3.91 -1.02,-5.66 -0.41,-1.72 -0.91,-3.33 -1.49,-4.8 -0.56,-1.44 -1.21,-2.73 -1.94,-3.85 -0.72,-1.1 -1.52,-2.06 -2.42,-2.87 -0.84,-0.77 -1.8,-1.35 -2.84,-1.73 -1.06,-0.38 -2.25,-0.58 -3.56,-0.58 -1.31,0 -2.51,0.2 -3.58,0.58 -1.06,0.38 -2.03,0.96 -2.9,1.74 -0.91,0.8 -1.73,1.76 -2.46,2.87 -0.74,1.12 -1.4,2.41 -1.96,3.84 -0.57,1.46 -1.06,3.06 -1.46,4.8 -0.41,1.75 -0.73,3.63 -0.97,5.65 -0.24,2.07 -0.42,4.19 -0.54,6.36 -0.12,2.16 -0.18,4.45 -0.18,6.84 0,2.4 0.06,4.68 0.18,6.84 0.12,2.17 0.3,4.3 0.54,6.36 0.24,2.02 0.56,3.91 0.97,5.65 0.4,1.74 0.9,3.34 1.46,4.8 0.56,1.43 1.21,2.72 1.96,3.84 0.74,1.11 1.55,2.07 2.45,2.87 0.88,0.78 1.85,1.36 2.9,1.74 1.07,0.38 2.27,0.58 3.58,0.58 1.31,0 2.5,-0.2 3.56,-0.58 1.05,-0.38 2,-0.96 2.84,-1.73 0.89,-0.81 1.7,-1.77 2.42,-2.87 0.73,-1.12 1.38,-2.41 1.94,-3.85 0.58,-1.48 1.07,-3.08 1.49,-4.8 0.42,-1.76 0.76,-3.65 1.02,-5.66 0.26,-2.01 0.45,-4.14 0.58,-6.37 0.13,-2.17 0.19,-4.45 0.19,-6.83zm2.38 -6.98c0.13,2.28 0.2,4.61 0.2,6.98 0,2.37 -0.07,4.7 -0.2,6.98 -0.13,2.22 -0.34,4.4 -0.61,6.54 -0.27,2.12 -0.63,4.11 -1.07,5.94 -0.45,1.86 -0.98,3.59 -1.59,5.15 -0.62,1.6 -1.35,3.04 -2.19,4.31 -0.85,1.3 -1.8,2.43 -2.84,3.38 -1.09,0.99 -2.33,1.74 -3.7,2.24 -1.36,0.49 -2.84,0.74 -4.44,0.74 -1.59,0 -3.08,-0.25 -4.45,-0.74 -1.39,-0.5 -2.64,-1.24 -3.75,-2.23 -1.08,-0.96 -2.05,-2.09 -2.89,-3.37 -0.84,-1.28 -1.58,-2.72 -2.21,-4.32 -0.62,-1.58 -1.14,-3.3 -1.58,-5.15 -0.43,-1.84 -0.77,-3.83 -1.02,-5.95 -0.24,-2.07 -0.43,-4.25 -0.55,-6.53 -0.12,-2.28 -0.19,-4.61 -0.19,-6.97 0,-2.36 0.06,-4.69 0.19,-6.97 0.12,-2.27 0.31,-4.45 0.55,-6.53 0.25,-2.12 0.59,-4.1 1.02,-5.95 0.43,-1.85 0.96,-3.57 1.58,-5.15 0.63,-1.6 1.37,-3.05 2.21,-4.32 0.85,-1.28 1.82,-2.41 2.9,-3.37 1.1,-0.99 2.36,-1.73 3.74,-2.23 1.37,-0.49 2.86,-0.74 4.45,-0.74 1.6,0 3.08,0.25 4.44,0.74 1.37,0.5 2.61,1.25 3.7,2.24 1.05,0.95 2,2.08 2.84,3.38 0.83,1.28 1.56,2.72 2.19,4.31 0.61,1.56 1.14,3.28 1.59,5.15 0.44,1.83 0.79,3.81 1.07,5.94 0.27,2.13 0.48,4.31 0.61,6.53z"/>
 </g>
</svg>
