<?xml version="1.0" encoding="UTF-8"?>
<!DOCTYPE svg PUBLIC "-//W3C//DTD SVG 1.1//EN" "http://www.w3.org/Graphics/SVG/1.1/DTD/svg11.dtd">
<!-- Creator: CorelDRAW 2019 (64-Bit) -->
<svg xmlns="http://www.w3.org/2000/svg" xml:space="preserve" width="7.3802mm" height="7.3802mm" version="1.1" style="shape-rendering:geometricPrecision; text-rendering:geometricPrecision; image-rendering:optimizeQuality; fill-rule:evenodd; clip-rule:evenodd"
viewBox="0 0 146.32 146.32"
 xmlns:xlink="http://www.w3.org/1999/xlink">
 <defs>
  <style type="text/css">
   <![CDATA[
    .fil0 {fill:black;fill-rule:nonzero}
   ]]>
  </style>
 </defs>
 <g id="Layer_x0020_1">
  <metadata id="CorelCorpID_0Corel-Layer"/>
  <path class="fil0" d="M124.89 124.89c-14.28,14.28 -33.01,21.43 -51.73,21.43 -18.72,0 -37.45,-7.15 -51.73,-21.43 -14.28,-14.28 -21.43,-33.01 -21.43,-51.73 0,-18.72 7.15,-37.45 21.43,-51.73 14.28,-14.28 33.01,-21.43 51.73,-21.43 18.72,0 37.45,7.15 51.73,21.43 14.28,14.28 21.43,33.01 21.43,51.73 0,18.72 -7.15,37.45 -21.43,51.73zm-33.85 -1.1l-48.85 -19.91 -0 0c-1.83,1.83 -4.8,1.83 -6.63,0 -1.83,-1.83 -1.83,-4.8 0,-6.64 1.83,-1.83 4.8,-1.83 6.63,0 0.25,0.25 0.46,0.52 0.64,0.8l35.97 -6.09c0.19,-0.82 0.61,-1.61 1.25,-2.25 1.83,-1.83 4.8,-1.83 6.63,0 1.83,1.83 1.83,4.8 0,6.64 -1.83,1.83 -4.8,1.83 -6.63,0 -0.25,-0.25 -0.46,-0.52 -0.64,-0.8l-33.94 5.75 46.95 19.13c1.23,-1.23 2.97,-1.64 4.53,-1.22l9.78 -12.63c-1.02,-1.79 -0.76,-4.1 0.77,-5.63 1.83,-1.83 4.8,-1.83 6.63,0 1.83,1.83 1.83,4.8 0,6.63 -1.23,1.23 -2.97,1.63 -4.53,1.22l-9.78 12.63c1.01,1.79 0.76,4.11 -0.77,5.63 -1.83,1.83 -4.8,1.83 -6.64,0 -0.9,-0.9 -1.36,-2.08 -1.37,-3.27zm-18.41 -92.3l-5.93 34.7c0.28,0.18 0.55,0.39 0.8,0.64 1.83,1.83 1.83,4.8 0,6.64 -1.83,1.83 -4.8,1.83 -6.63,0 -1.83,-1.83 -1.83,-4.8 0,-6.64 0.64,-0.64 1.43,-1.06 2.25,-1.25l5.88 -34.38 -18.77 14.44c0.41,1.56 0.01,3.3 -1.22,4.52 -1.83,1.83 -4.8,1.83 -6.63,0 -1.83,-1.83 -1.83,-4.8 0,-6.63 1.53,-1.53 3.85,-1.78 5.64,-0.76l19.02 -14.63c-0.41,-1.56 -0.01,-3.29 1.22,-4.52 1.83,-1.83 4.8,-1.83 6.63,0 1.83,1.83 1.83,4.8 0,6.63 -0.64,0.64 -1.43,1.06 -2.26,1.25zm33.9 11.63l0.81 21.49c0.61,0.23 1.18,0.59 1.67,1.08 1.83,1.83 1.83,4.8 0,6.63 -1.83,1.83 -4.8,1.83 -6.63,0 -1.83,-1.83 -1.83,-4.8 0,-6.63 0.4,-0.4 0.86,-0.71 1.34,-0.94l-0.81 -21.49c-0.61,-0.23 -1.18,-0.58 -1.67,-1.07 -1.83,-1.83 -1.83,-4.8 0,-6.64 1.83,-1.83 4.8,-1.83 6.63,0 1.83,1.83 1.83,4.8 0,6.64 -0.4,0.4 -0.86,0.71 -1.34,0.94zm-33.37 99.57c17.79,0 35.59,-6.79 49.16,-20.36 13.57,-13.57 20.36,-31.37 20.36,-49.16 0,-17.79 -6.79,-35.59 -20.36,-49.16 -13.57,-13.57 -31.37,-20.36 -49.16,-20.36 -17.79,0 -35.59,6.79 -49.16,20.36 -13.57,13.57 -20.36,31.37 -20.36,49.16 0,17.79 6.79,35.59 20.36,49.16 13.57,13.57 31.37,20.36 49.16,20.36z"/>
 </g>
</svg>
