<?xml version="1.0" encoding="UTF-8" standalone="no"?>
<!-- Creator: CorelDRAW 2019 (64-Bit) -->

<svg
   xmlns:dc="http://purl.org/dc/elements/1.1/"
   xmlns:cc="http://creativecommons.org/ns#"
   xmlns:rdf="http://www.w3.org/1999/02/22-rdf-syntax-ns#"
   xmlns:svg="http://www.w3.org/2000/svg"
   xmlns="http://www.w3.org/2000/svg"
   xmlns:sodipodi="http://sodipodi.sourceforge.net/DTD/sodipodi-0.dtd"
   xmlns:inkscape="http://www.inkscape.org/namespaces/inkscape"
   xml:space="preserve"
   width="85"
   height="85"
   version="1.1"
   style="clip-rule:evenodd;fill-rule:evenodd;image-rendering:optimizeQuality;shape-rendering:geometricPrecision;text-rendering:geometricPrecision"
   viewBox="0 0 445.87895 445.87895"
   id="svg10"
   sodipodi:docname="network.svg"
   inkscape:version="0.92.4 (5da689c313, 2019-01-14)"><metadata
   id="metadata14"><rdf:RDF><cc:Work
       rdf:about=""><dc:format>image/svg+xml</dc:format><dc:type
         rdf:resource="http://purl.org/dc/dcmitype/StillImage" /><dc:title /></cc:Work></rdf:RDF></metadata><sodipodi:namedview
   pagecolor="#ffffff"
   bordercolor="#666666"
   borderopacity="1"
   objecttolerance="10"
   gridtolerance="10"
   guidetolerance="10"
   inkscape:pageopacity="0"
   inkscape:pageshadow="2"
   inkscape:window-width="1366"
   inkscape:window-height="715"
   id="namedview12"
   showgrid="false"
   units="px"
   inkscape:zoom="8.4607013"
   inkscape:cx="-5.2596117"
   inkscape:cy="13.946834"
   inkscape:window-x="-8"
   inkscape:window-y="-8"
   inkscape:window-maximized="1"
   inkscape:current-layer="svg10" />
 <defs
   id="defs4">
  <style
   type="text/css"
   id="style2">
   <![CDATA[
    .fil0 {fill:black;fill-rule:nonzero}
   ]]>
  </style>
 </defs>
 <g
   id="Layer_x0020_1"
   transform="matrix(2.1510257,0,0,2.1510257,65.570435,65.570435)"
   style="fill:#000000;fill-opacity:1">
  <metadata
   id="CorelCorpID_0Corel-Layer" />
  <path
   class="fil0"
   d="m 124.89,124.89 c -14.28,14.28 -33.01,21.43 -51.73,21.43 -18.72,0 -37.45,-7.15 -51.73,-21.43 C 7.15,110.61 0,91.88 0,73.16 0,54.44 7.15,35.71 21.43,21.43 35.71,7.15 54.44,0 73.16,0 c 18.72,0 37.45,7.15 51.73,21.43 14.28,14.28 21.43,33.01 21.43,51.73 0,18.72 -7.15,37.45 -21.43,51.73 z m -33.85,-1.1 -48.85,-19.91 v 0 c -1.83,1.83 -4.8,1.83 -6.63,0 -1.83,-1.83 -1.83,-4.8 0,-6.64 1.83,-1.83 4.8,-1.83 6.63,0 0.25,0.25 0.46,0.52 0.64,0.8 L 78.8,91.95 c 0.19,-0.82 0.61,-1.61 1.25,-2.25 1.83,-1.83 4.8,-1.83 6.63,0 1.83,1.83 1.83,4.8 0,6.64 -1.83,1.83 -4.8,1.83 -6.63,0 -0.25,-0.25 -0.46,-0.52 -0.64,-0.8 l -33.94,5.75 46.95,19.13 c 1.23,-1.23 2.97,-1.64 4.53,-1.22 l 9.78,-12.63 c -1.02,-1.79 -0.76,-4.1 0.77,-5.63 1.83,-1.83 4.8,-1.83 6.63,0 1.83,1.83 1.83,4.8 0,6.63 -1.23,1.23 -2.97,1.63 -4.53,1.22 l -9.78,12.63 c 1.01,1.79 0.76,4.11 -0.77,5.63 -1.83,1.83 -4.8,1.83 -6.64,0 -0.9,-0.9 -1.36,-2.08 -1.37,-3.27 z M 72.63,31.49 66.7,66.19 c 0.28,0.18 0.55,0.39 0.8,0.64 1.83,1.83 1.83,4.8 0,6.64 -1.83,1.83 -4.8,1.83 -6.63,0 -1.83,-1.83 -1.83,-4.8 0,-6.64 0.64,-0.64 1.43,-1.06 2.25,-1.25 L 69,31.2 50.23,45.64 c 0.41,1.56 0.01,3.3 -1.22,4.52 -1.83,1.83 -4.8,1.83 -6.63,0 -1.83,-1.83 -1.83,-4.8 0,-6.63 1.53,-1.53 3.85,-1.78 5.64,-0.76 L 67.04,28.14 c -0.41,-1.56 -0.01,-3.29 1.22,-4.52 1.83,-1.83 4.8,-1.83 6.63,0 1.83,1.83 1.83,4.8 0,6.63 -0.64,0.64 -1.43,1.06 -2.26,1.25 z m 33.9,11.63 0.81,21.49 c 0.61,0.23 1.18,0.59 1.67,1.08 1.83,1.83 1.83,4.8 0,6.63 -1.83,1.83 -4.8,1.83 -6.63,0 -1.83,-1.83 -1.83,-4.8 0,-6.63 0.4,-0.4 0.86,-0.71 1.34,-0.94 l -0.81,-21.49 c -0.61,-0.23 -1.18,-0.58 -1.67,-1.07 -1.83,-1.83 -1.83,-4.8 0,-6.64 1.83,-1.83 4.8,-1.83 6.63,0 1.83,1.83 1.83,4.8 0,6.64 -0.4,0.4 -0.86,0.71 -1.34,0.94 z m -33.37,99.57 c 17.79,0 35.59,-6.79 49.16,-20.36 13.57,-13.57 20.36,-31.37 20.36,-49.16 0,-17.79 -6.79,-35.59 -20.36,-49.16 C 108.75,10.44 90.95,3.65 73.16,3.65 55.37,3.65 37.57,10.44 24,24.01 10.43,37.58 3.64,55.38 3.64,73.17 c 0,17.79 6.79,35.59 20.36,49.16 13.57,13.57 31.37,20.36 49.16,20.36 z"
   id="path7"
   inkscape:connector-curvature="0"
   style="fill:#000000;fill-rule:nonzero;fill-opacity:1" />
 </g>
</svg>