<?xml version="1.0" encoding="UTF-8"?>
<!DOCTYPE svg PUBLIC "-//W3C//DTD SVG 1.1//EN" "http://www.w3.org/Graphics/SVG/1.1/DTD/svg11.dtd">
<!-- Creator: CorelDRAW 2019 (64-Bit) -->
<svg xmlns="http://www.w3.org/2000/svg" xml:space="preserve" width="7.3399mm" height="2.9704mm" version="1.1" style="shape-rendering:geometricPrecision; text-rendering:geometricPrecision; image-rendering:optimizeQuality; fill-rule:evenodd; clip-rule:evenodd"
viewBox="0 0 110.71 44.8"
 xmlns:xlink="http://www.w3.org/1999/xlink">
 <defs>
  <style type="text/css">
   <![CDATA[
    .fil0 {fill:black;fill-rule:nonzero}
   ]]>
  </style>
 </defs>
 <g id="Layer_x0020_1">
  <metadata id="CorelCorpID_0Corel-Layer"/>
  <path class="fil0" d="M34.96 34.05c-0.41,2.71 -1.72,5.16 -3.6,7.04 -1.88,1.87 -4.33,3.17 -7.04,3.57 -3.52,0.52 -6.83,-0.42 -9.4,-2.31 -2.46,-1.8 -4.24,-4.47 -4.92,-7.55 -2.75,-0.6 -5.18,-2.09 -6.95,-4.16 -1.9,-2.22 -3.05,-5.1 -3.05,-8.24 0,-3.14 1.15,-6.03 3.05,-8.24 1.77,-2.06 4.19,-3.56 6.95,-4.16 0.67,-3.08 2.46,-5.75 4.91,-7.55 2.57,-1.89 5.88,-2.83 9.4,-2.31 2.71,0.4 5.16,1.7 7.04,3.57 1.88,1.88 3.19,4.33 3.6,7.04 0.17,1.12 0.19,2.22 0.08,3.29 -0.12,1.11 -0.38,2.18 -0.77,3.18 -0.07,0.2 -0.11,0.41 -0.11,0.6 0,0.33 0.1,0.64 0.27,0.89 0.17,0.25 0.41,0.45 0.7,0.56l0.04 0.02c0.15,0.05 0.32,0.08 0.51,0.08l72.01 0c0.83,0 1.58,0.34 2.13,0.88 0.55,0.55 0.89,1.31 0.89,2.13 0,0.83 -0.34,1.58 -0.88,2.13 -0.55,0.55 -1.31,0.89 -2.13,0.89l-3.88 0c-0.24,0 -0.46,0.1 -0.61,0.25 -0.15,0.15 -0.25,0.37 -0.25,0.61l-0 0.08c0.02,0.21 0.11,0.39 0.25,0.53 0.16,0.15 0.37,0.25 0.61,0.25l0.04 -0c0.82,0 1.57,0.34 2.11,0.89 0.53,0.54 0.86,1.29 0.87,2.1l0 3.9c0,0.83 -0.34,1.58 -0.88,2.13 -0.55,0.55 -1.31,0.89 -2.13,0.89 -0.83,0 -1.58,-0.34 -2.13,-0.88 -0.55,-0.55 -0.89,-1.3 -0.89,-2.13 0,-0.24 -0.1,-0.45 -0.25,-0.61 -0.15,-0.15 -0.37,-0.25 -0.61,-0.25 -0.24,0 -0.46,0.1 -0.61,0.25 -0.15,0.15 -0.25,0.37 -0.25,0.61 0,0.83 -0.34,1.58 -0.88,2.13 -0.55,0.55 -1.31,0.89 -2.13,0.89 -0.83,0 -1.58,-0.34 -2.13,-0.88 -0.55,-0.55 -0.89,-1.3 -0.89,-2.13 0,-0.24 -0.1,-0.45 -0.25,-0.61 -0.15,-0.15 -0.37,-0.25 -0.61,-0.25 -0.24,0 -0.46,0.1 -0.61,0.25 -0.15,0.15 -0.25,0.37 -0.25,0.61 0,0.83 -0.34,1.58 -0.88,2.13 -0.55,0.55 -1.31,0.89 -2.13,0.89 -0.83,0 -1.58,-0.34 -2.13,-0.88 -0.55,-0.55 -0.89,-1.3 -0.89,-2.13 0,-1.3 -0.07,-2.75 0.01,-4.03 0.04,-0.76 0.36,-1.46 0.86,-1.98 0.53,-0.54 1.28,-0.89 2.1,-0.89l0.04 -0c0.24,0 0.45,-0.09 0.6,-0.24 0.16,-0.15 0.25,-0.37 0.26,-0.59l-0 -0.02c0,-0.24 -0.1,-0.46 -0.25,-0.61 -0.15,-0.15 -0.37,-0.25 -0.61,-0.25l-52.62 0c-0.2,0 -0.39,0.04 -0.56,0.1l-0.04 0.01c-0.27,0.11 -0.49,0.31 -0.66,0.55 -0.17,0.25 -0.27,0.56 -0.27,0.89 0,0.2 0.04,0.41 0.11,0.61 0.38,1 0.65,2.07 0.76,3.18l0 0.03c0.11,1.06 0.09,2.16 -0.08,3.27zm-5.12 5.51c1.56,-1.56 2.64,-3.59 2.98,-5.83 0.14,-0.94 0.16,-1.85 0.07,-2.72l-0 -0.03c-0.1,-0.91 -0.32,-1.8 -0.64,-2.64 -0.17,-0.46 -0.26,-0.92 -0.26,-1.38 0,-0.76 0.23,-1.49 0.64,-2.09 0.39,-0.59 0.96,-1.06 1.64,-1.34l0.07 -0.03c0.41,-0.16 0.86,-0.24 1.33,-0.24l52.62 0c0.83,0 1.58,0.34 2.13,0.88 0.55,0.55 0.89,1.31 0.89,2.14l0 0.02c-0.02,0.84 -0.36,1.59 -0.9,2.12 -0.55,0.54 -1.3,0.87 -2.12,0.87l-0.04 0c-0.22,-0 -0.42,0.09 -0.57,0.24 -0.14,0.14 -0.23,0.33 -0.25,0.54 0.03,1.3 0,2.65 0,3.95 0,0.24 0.1,0.46 0.25,0.61 0.15,0.15 0.37,0.25 0.61,0.25 0.24,0 0.46,-0.1 0.61,-0.25 0.15,-0.15 0.25,-0.37 0.25,-0.61 0,-0.83 0.34,-1.58 0.88,-2.13 0.55,-0.55 1.3,-0.89 2.13,-0.89 0.83,0 1.59,0.34 2.13,0.88 0.55,0.55 0.89,1.3 0.89,2.13 0,0.24 0.1,0.46 0.25,0.61 0.15,0.15 0.37,0.25 0.61,0.25 0.24,0 0.46,-0.1 0.61,-0.25 0.15,-0.15 0.25,-0.37 0.25,-0.61 0,-0.83 0.34,-1.58 0.88,-2.13 0.55,-0.55 1.3,-0.89 2.13,-0.89 0.83,0 1.59,0.34 2.13,0.88 0.55,0.55 0.89,1.3 0.89,2.13 0,0.24 0.1,0.46 0.25,0.61 0.15,0.15 0.37,0.25 0.61,0.25 0.24,0 0.46,-0.1 0.61,-0.25 0.15,-0.15 0.25,-0.37 0.25,-0.61l0 -3.9c0,-0.23 -0.1,-0.44 -0.25,-0.6 -0.14,-0.15 -0.35,-0.24 -0.57,-0.24l-0.04 0c-0.83,-0 -1.58,-0.34 -2.12,-0.87 -0.52,-0.51 -0.85,-1.21 -0.89,-1.98l-0.01 -0.16c0,-0.83 0.34,-1.59 0.88,-2.13 0.55,-0.55 1.3,-0.89 2.13,-0.89l3.88 0c0.24,0 0.46,-0.1 0.61,-0.25 0.15,-0.15 0.25,-0.37 0.25,-0.61 0,-0.24 -0.1,-0.46 -0.25,-0.61 -0.15,-0.15 -0.37,-0.25 -0.61,-0.25l-72.01 0c-0.44,0 -0.87,-0.08 -1.26,-0.22l-0.06 -0.02c-0.71,-0.27 -1.31,-0.76 -1.72,-1.37 -0.41,-0.61 -0.64,-1.34 -0.64,-2.1 0,-0.45 0.08,-0.92 0.26,-1.37 0.32,-0.83 0.54,-1.72 0.64,-2.64 0.09,-0.88 0.07,-1.8 -0.07,-2.75 -0.34,-2.24 -1.43,-4.28 -2.98,-5.83 -1.56,-1.55 -3.6,-2.63 -5.84,-2.96 -2.94,-0.43 -5.69,0.35 -7.82,1.91 -2.2,1.62 -3.76,4.07 -4.2,6.89 -0.07,0.45 -0.42,0.83 -0.9,0.91 -2.54,0.39 -4.79,1.7 -6.4,3.57 -1.58,1.84 -2.53,4.23 -2.53,6.84 0,2.61 0.96,5.01 2.53,6.84 1.6,1.87 3.85,3.17 6.39,3.57 0.45,0.07 0.83,0.42 0.91,0.9 0.44,2.82 2,5.28 4.2,6.9 2.13,1.57 4.88,2.35 7.82,1.91 2.24,-0.33 4.28,-1.41 5.84,-2.96zm-7.44 -0.8c1.84,0 3.51,-0.75 4.72,-1.96l0.06 -0.05c1.17,-1.2 1.9,-2.85 1.9,-4.67 0,-1.57 -0.54,-3.01 -1.45,-4.14 -0.71,-0.89 -1.64,-1.59 -2.71,-2.03 -0.6,2.09 -1.73,3.96 -3.22,5.46 -1.49,1.49 -3.36,2.62 -5.46,3.22 0.44,1.07 1.14,2 2.03,2.71 1.13,0.9 2.57,1.45 4.14,1.45zm6.24 -0.43c-1.6,1.6 -3.81,2.59 -6.24,2.59 -2.07,0 -3.98,-0.72 -5.48,-1.92 -1.53,-1.22 -2.65,-2.94 -3.1,-4.91l-0.02 -0.07c-0.11,-0.58 0.28,-1.15 0.86,-1.26 2.12,-0.4 4.03,-1.44 5.5,-2.91 1.47,-1.47 2.51,-3.38 2.91,-5.5l0.01 -0.04c0.13,-0.58 0.71,-0.94 1.29,-0.81 1.98,0.45 3.71,1.57 4.94,3.11 1.2,1.5 1.92,3.41 1.92,5.48 0,2.4 -0.97,4.58 -2.53,6.18l-0.06 0.07zm-12.46 -12.46c0.98,-0.98 2.2,-1.73 3.56,-2.17 0.2,-0.06 0.43,-0.07 0.65,0 0.57,0.18 0.88,0.78 0.7,1.35 -0.43,1.36 -1.18,2.57 -2.16,3.55 -0.98,0.98 -2.2,1.73 -3.56,2.17 -0.2,0.06 -0.43,0.07 -0.65,0 -0.57,-0.18 -0.88,-0.78 -0.7,-1.35 0.43,-1.36 1.18,-2.57 2.16,-3.55zm-10.15 -3.48c0,1.57 0.54,3.01 1.45,4.14 0.71,0.89 1.65,1.59 2.72,2.03 0.36,-1.25 0.91,-2.43 1.62,-3.49 0.66,-1 1.47,-1.9 2.38,-2.68 -0.91,-0.78 -1.72,-1.68 -2.38,-2.68 -0.7,-1.06 -1.25,-2.24 -1.62,-3.49 -1.07,0.44 -2.01,1.14 -2.72,2.03 -0.9,1.13 -1.45,2.57 -1.45,4.14zm-0.24 5.48c-1.2,-1.51 -1.92,-3.41 -1.92,-5.48 0,-2.07 0.72,-3.98 1.92,-5.48 1.22,-1.53 2.94,-2.65 4.91,-3.1l0.07 -0.02c0.58,-0.11 1.15,0.28 1.26,0.86 0.26,1.41 0.81,2.72 1.57,3.87 0.78,1.17 1.79,2.18 2.95,2.96 0.12,0.08 0.23,0.18 0.32,0.31 0.33,0.5 0.19,1.17 -0.3,1.49 -1.17,0.78 -2.19,1.79 -2.97,2.97 -0.76,1.15 -1.31,2.47 -1.57,3.87l-0.01 0.04c-0.13,0.58 -0.71,0.94 -1.29,0.81 -1.98,-0.45 -3.72,-1.58 -4.94,-3.11zm13.13 -11.7c0.98,0.98 1.73,2.19 2.16,3.56 0.06,0.2 0.07,0.43 0,0.65 -0.18,0.57 -0.78,0.88 -1.35,0.7 -1.36,-0.44 -2.58,-1.19 -3.56,-2.16 -0.98,-0.98 -1.73,-2.19 -2.16,-3.56 -0.06,-0.2 -0.07,-0.43 0,-0.65 0.18,-0.57 0.78,-0.88 1.35,-0.7 1.36,0.44 2.58,1.19 3.56,2.16zm10.15 -3.47c0,-1.84 -0.75,-3.51 -1.96,-4.72l-0.05 -0.06c-1.2,-1.17 -2.85,-1.9 -4.67,-1.9 -1.57,0 -3.01,0.54 -4.14,1.45l-0.05 0.04c-0.86,0.7 -1.55,1.62 -1.98,2.68 2.09,0.6 3.96,1.73 5.46,3.22 1.49,1.49 2.62,3.36 3.22,5.46 1.07,-0.44 2.01,-1.14 2.72,-2.03 0.9,-1.14 1.45,-2.57 1.45,-4.14zm-0.43 -6.24c1.6,1.6 2.59,3.81 2.59,6.24 0,2.07 -0.72,3.98 -1.92,5.48 -1.22,1.53 -2.95,2.64 -4.91,3.1l-0.07 0.02c-0.58,0.11 -1.15,-0.28 -1.26,-0.86 -0.4,-2.12 -1.44,-4.03 -2.91,-5.5 -1.47,-1.47 -3.38,-2.51 -5.5,-2.91l-0.04 -0.01c-0.58,-0.13 -0.94,-0.71 -0.81,-1.29 0.45,-1.95 1.55,-3.67 3.05,-4.89l0.06 -0.05c1.51,-1.2 3.41,-1.92 5.48,-1.92 2.4,0 4.58,0.97 6.18,2.53l0.07 0.06z"/>
 </g>
</svg>
