<?xml version="1.0" encoding="UTF-8" standalone="no"?>
<!-- Creator: CorelDRAW 2019 (64-Bit) -->

<svg
   xmlns:dc="http://purl.org/dc/elements/1.1/"
   xmlns:cc="http://creativecommons.org/ns#"
   xmlns:rdf="http://www.w3.org/1999/02/22-rdf-syntax-ns#"
   xmlns:svg="http://www.w3.org/2000/svg"
   xmlns="http://www.w3.org/2000/svg"
   xmlns:sodipodi="http://sodipodi.sourceforge.net/DTD/sodipodi-0.dtd"
   xmlns:inkscape="http://www.inkscape.org/namespaces/inkscape"
   xml:space="preserve"
   width="85"
   height="85"
   version="1.1"
   style="clip-rule:evenodd;fill-rule:evenodd;image-rendering:optimizeQuality;shape-rendering:geometricPrecision;text-rendering:geometricPrecision"
   viewBox="0 0 339.2174 339.19111"
   id="svg10"
   sodipodi:docname="stamp.svg"
   inkscape:version="0.92.4 (5da689c313, 2019-01-14)"><metadata
   id="metadata14"><rdf:RDF><cc:Work
       rdf:about=""><dc:format>image/svg+xml</dc:format><dc:type
         rdf:resource="http://purl.org/dc/dcmitype/StillImage" /><dc:title /></cc:Work></rdf:RDF></metadata><sodipodi:namedview
   pagecolor="#ffffff"
   bordercolor="#666666"
   borderopacity="1"
   objecttolerance="10"
   gridtolerance="10"
   guidetolerance="10"
   inkscape:pageopacity="0"
   inkscape:pageshadow="2"
   inkscape:window-width="1366"
   inkscape:window-height="715"
   id="namedview12"
   showgrid="false"
   units="px"
   inkscape:zoom="5.0851087"
   inkscape:cx="-9.4161504"
   inkscape:cy="65.591082"
   inkscape:window-x="-8"
   inkscape:window-y="-8"
   inkscape:window-maximized="1"
   inkscape:current-layer="svg10" />
 <defs
   id="defs4">
  <style
   type="text/css"
   id="style2">
   <![CDATA[
    .fil0 {fill:black;fill-rule:nonzero}
   ]]>
  </style>
 </defs>
 <g
   id="Layer_x0020_1"
   transform="matrix(2.1630314,0,0,2.1630314,49.884912,121.14365)"
   style="fill:#000000;fill-opacity:1">
  <metadata
   id="CorelCorpID_0Corel-Layer" />
  <path
   class="fil0"
   d="m 34.96,34.05 c -0.41,2.71 -1.72,5.16 -3.6,7.04 -1.88,1.87 -4.33,3.17 -7.04,3.57 -3.52,0.52 -6.83,-0.42 -9.4,-2.31 C 12.46,40.55 10.68,37.88 10,34.8 7.25,34.2 4.82,32.71 3.05,30.64 1.15,28.42 0,25.54 0,22.4 0,19.26 1.15,16.37 3.05,14.16 4.82,12.1 7.24,10.6 10,10 c 0.67,-3.08 2.46,-5.75 4.91,-7.55 2.57,-1.89 5.88,-2.83 9.4,-2.31 2.71,0.4 5.16,1.7 7.04,3.57 1.88,1.88 3.19,4.33 3.6,7.04 0.17,1.12 0.19,2.22 0.08,3.29 -0.12,1.11 -0.38,2.18 -0.77,3.18 -0.07,0.2 -0.11,0.41 -0.11,0.6 0,0.33 0.1,0.64 0.27,0.89 0.17,0.25 0.41,0.45 0.7,0.56 l 0.04,0.02 c 0.15,0.05 0.32,0.08 0.51,0.08 h 72.01 c 0.83,0 1.58,0.34 2.13,0.88 0.55,0.55 0.89,1.31 0.89,2.13 0,0.83 -0.34,1.58 -0.88,2.13 -0.55,0.55 -1.31,0.89 -2.13,0.89 h -3.88 c -0.24,0 -0.46,0.1 -0.61,0.25 -0.15,0.15 -0.25,0.37 -0.25,0.61 v 0.08 c 0.02,0.21 0.11,0.39 0.25,0.53 0.16,0.15 0.37,0.25 0.61,0.25 h 0.04 c 0.82,0 1.57,0.34 2.11,0.89 0.53,0.54 0.86,1.29 0.87,2.1 v 3.9 c 0,0.83 -0.34,1.58 -0.88,2.13 -0.55,0.55 -1.31,0.89 -2.13,0.89 -0.83,0 -1.58,-0.34 -2.13,-0.88 -0.55,-0.55 -0.89,-1.3 -0.89,-2.13 0,-0.24 -0.1,-0.45 -0.25,-0.61 -0.15,-0.15 -0.37,-0.25 -0.61,-0.25 -0.24,0 -0.46,0.1 -0.61,0.25 -0.15,0.15 -0.25,0.37 -0.25,0.61 0,0.83 -0.34,1.58 -0.88,2.13 -0.55,0.55 -1.31,0.89 -2.13,0.89 -0.83,0 -1.58,-0.34 -2.13,-0.88 -0.55,-0.55 -0.89,-1.3 -0.89,-2.13 0,-0.24 -0.1,-0.45 -0.25,-0.61 -0.15,-0.15 -0.37,-0.25 -0.61,-0.25 -0.24,0 -0.46,0.1 -0.61,0.25 -0.15,0.15 -0.25,0.37 -0.25,0.61 0,0.83 -0.34,1.58 -0.88,2.13 -0.55,0.55 -1.31,0.89 -2.13,0.89 -0.83,0 -1.58,-0.34 -2.13,-0.88 -0.55,-0.55 -0.89,-1.3 -0.89,-2.13 0,-1.3 -0.07,-2.75 0.01,-4.03 0.04,-0.76 0.36,-1.46 0.86,-1.98 0.53,-0.54 1.28,-0.89 2.1,-0.89 h 0.04 c 0.24,0 0.45,-0.09 0.6,-0.24 0.16,-0.15 0.25,-0.37 0.26,-0.59 v -0.02 c 0,-0.24 -0.1,-0.46 -0.25,-0.61 -0.15,-0.15 -0.37,-0.25 -0.61,-0.25 H 35.69 c -0.2,0 -0.39,0.04 -0.56,0.1 l -0.04,0.01 c -0.27,0.11 -0.49,0.31 -0.66,0.55 -0.17,0.25 -0.27,0.56 -0.27,0.89 0,0.2 0.04,0.41 0.11,0.61 0.38,1 0.65,2.07 0.76,3.18 v 0.03 c 0.11,1.06 0.09,2.16 -0.08,3.27 z m -5.12,5.51 c 1.56,-1.56 2.64,-3.59 2.98,-5.83 0.14,-0.94 0.16,-1.85 0.07,-2.72 v -0.03 c -0.1,-0.91 -0.32,-1.8 -0.64,-2.64 -0.17,-0.46 -0.26,-0.92 -0.26,-1.38 0,-0.76 0.23,-1.49 0.64,-2.09 0.39,-0.59 0.96,-1.06 1.64,-1.34 l 0.07,-0.03 c 0.41,-0.16 0.86,-0.24 1.33,-0.24 h 52.62 c 0.83,0 1.58,0.34 2.13,0.88 0.55,0.55 0.89,1.31 0.89,2.14 v 0.02 c -0.02,0.84 -0.36,1.59 -0.9,2.12 -0.55,0.54 -1.3,0.87 -2.12,0.87 h -0.04 c -0.22,0 -0.42,0.09 -0.57,0.24 -0.14,0.14 -0.23,0.33 -0.25,0.54 0.03,1.3 0,2.65 0,3.95 0,0.24 0.1,0.46 0.25,0.61 0.15,0.15 0.37,0.25 0.61,0.25 0.24,0 0.46,-0.1 0.61,-0.25 0.15,-0.15 0.25,-0.37 0.25,-0.61 0,-0.83 0.34,-1.58 0.88,-2.13 0.55,-0.55 1.3,-0.89 2.13,-0.89 0.83,0 1.59,0.34 2.13,0.88 0.55,0.55 0.89,1.3 0.89,2.13 0,0.24 0.1,0.46 0.25,0.61 0.15,0.15 0.37,0.25 0.61,0.25 0.24,0 0.46,-0.1 0.61,-0.25 0.15,-0.15 0.25,-0.37 0.25,-0.61 0,-0.83 0.34,-1.58 0.88,-2.13 0.55,-0.55 1.3,-0.89 2.13,-0.89 0.83,0 1.59,0.34 2.13,0.88 0.55,0.55 0.89,1.3 0.89,2.13 0,0.24 0.1,0.46 0.25,0.61 0.15,0.15 0.37,0.25 0.61,0.25 0.24,0 0.46,-0.1 0.61,-0.25 0.15,-0.15 0.25,-0.37 0.25,-0.61 v -3.9 c 0,-0.23 -0.1,-0.44 -0.25,-0.6 -0.14,-0.15 -0.35,-0.24 -0.57,-0.24 h -0.04 c -0.83,0 -1.58,-0.34 -2.12,-0.87 -0.52,-0.51 -0.85,-1.21 -0.89,-1.98 l -0.01,-0.16 c 0,-0.83 0.34,-1.59 0.88,-2.13 0.55,-0.55 1.3,-0.89 2.13,-0.89 h 3.88 c 0.24,0 0.46,-0.1 0.61,-0.25 0.15,-0.15 0.25,-0.37 0.25,-0.61 0,-0.24 -0.1,-0.46 -0.25,-0.61 -0.15,-0.15 -0.37,-0.25 -0.61,-0.25 H 35.65 c -0.44,0 -0.87,-0.08 -1.26,-0.22 L 34.33,21.27 C 33.62,21 33.02,20.51 32.61,19.9 32.2,19.29 31.97,18.56 31.97,17.8 c 0,-0.45 0.08,-0.92 0.26,-1.37 0.32,-0.83 0.54,-1.72 0.64,-2.64 0.09,-0.88 0.07,-1.8 -0.07,-2.75 C 32.46,8.8 31.37,6.76 29.82,5.21 28.26,3.66 26.22,2.58 23.98,2.25 21.04,1.82 18.29,2.6 16.16,4.16 c -2.2,1.62 -3.76,4.07 -4.2,6.89 -0.07,0.45 -0.42,0.83 -0.9,0.91 -2.54,0.39 -4.79,1.7 -6.4,3.57 -1.58,1.84 -2.53,4.23 -2.53,6.84 0,2.61 0.96,5.01 2.53,6.84 1.6,1.87 3.85,3.17 6.39,3.57 0.45,0.07 0.83,0.42 0.91,0.9 0.44,2.82 2,5.28 4.2,6.9 2.13,1.57 4.88,2.35 7.82,1.91 2.24,-0.33 4.28,-1.41 5.84,-2.96 z m -7.44,-0.8 c 1.84,0 3.51,-0.75 4.72,-1.96 l 0.06,-0.05 c 1.17,-1.2 1.9,-2.85 1.9,-4.67 0,-1.57 -0.54,-3.01 -1.45,-4.14 -0.71,-0.89 -1.64,-1.59 -2.71,-2.03 -0.6,2.09 -1.73,3.96 -3.22,5.46 -1.49,1.49 -3.36,2.62 -5.46,3.22 0.44,1.07 1.14,2 2.03,2.71 1.13,0.9 2.57,1.45 4.14,1.45 z m 6.24,-0.43 c -1.6,1.6 -3.81,2.59 -6.24,2.59 -2.07,0 -3.98,-0.72 -5.48,-1.92 -1.53,-1.22 -2.65,-2.94 -3.1,-4.91 L 13.8,34.02 c -0.11,-0.58 0.28,-1.15 0.86,-1.26 2.12,-0.4 4.03,-1.44 5.5,-2.91 1.47,-1.47 2.51,-3.38 2.91,-5.5 l 0.01,-0.04 c 0.13,-0.58 0.71,-0.94 1.29,-0.81 1.98,0.45 3.71,1.57 4.94,3.11 1.2,1.5 1.92,3.41 1.92,5.48 0,2.4 -0.97,4.58 -2.53,6.18 l -0.06,0.07 z M 16.18,25.87 c 0.98,-0.98 2.2,-1.73 3.56,-2.17 0.2,-0.06 0.43,-0.07 0.65,0 0.57,0.18 0.88,0.78 0.7,1.35 -0.43,1.36 -1.18,2.57 -2.16,3.55 -0.98,0.98 -2.2,1.73 -3.56,2.17 -0.2,0.06 -0.43,0.07 -0.65,0 -0.57,-0.18 -0.88,-0.78 -0.7,-1.35 0.43,-1.36 1.18,-2.57 2.16,-3.55 z M 6.03,22.39 c 0,1.57 0.54,3.01 1.45,4.14 0.71,0.89 1.65,1.59 2.72,2.03 0.36,-1.25 0.91,-2.43 1.62,-3.49 0.66,-1 1.47,-1.9 2.38,-2.68 -0.91,-0.78 -1.72,-1.68 -2.38,-2.68 -0.7,-1.06 -1.25,-2.24 -1.62,-3.49 -1.07,0.44 -2.01,1.14 -2.72,2.03 -0.9,1.13 -1.45,2.57 -1.45,4.14 z m -0.24,5.48 c -1.2,-1.51 -1.92,-3.41 -1.92,-5.48 0,-2.07 0.72,-3.98 1.92,-5.48 1.22,-1.53 2.94,-2.65 4.91,-3.1 l 0.07,-0.02 c 0.58,-0.11 1.15,0.28 1.26,0.86 0.26,1.41 0.81,2.72 1.57,3.87 0.78,1.17 1.79,2.18 2.95,2.96 0.12,0.08 0.23,0.18 0.32,0.31 0.33,0.5 0.19,1.17 -0.3,1.49 -1.17,0.78 -2.19,1.79 -2.97,2.97 -0.76,1.15 -1.31,2.47 -1.57,3.87 l -0.01,0.04 C 11.89,30.74 11.31,31.1 10.73,30.97 8.75,30.52 7.01,29.39 5.79,27.86 Z m 13.13,-11.7 c 0.98,0.98 1.73,2.19 2.16,3.56 0.06,0.2 0.07,0.43 0,0.65 -0.18,0.57 -0.78,0.88 -1.35,0.7 -1.36,-0.44 -2.58,-1.19 -3.56,-2.16 -0.98,-0.98 -1.73,-2.19 -2.16,-3.56 -0.06,-0.2 -0.07,-0.43 0,-0.65 0.18,-0.57 0.78,-0.88 1.35,-0.7 1.36,0.44 2.58,1.19 3.56,2.16 z M 29.07,12.7 c 0,-1.84 -0.75,-3.51 -1.96,-4.72 L 27.06,7.92 c -1.2,-1.17 -2.85,-1.9 -4.67,-1.9 -1.57,0 -3.01,0.54 -4.14,1.45 L 18.2,7.51 c -0.86,0.7 -1.55,1.62 -1.98,2.68 2.09,0.6 3.96,1.73 5.46,3.22 1.49,1.49 2.62,3.36 3.22,5.46 1.07,-0.44 2.01,-1.14 2.72,-2.03 0.9,-1.14 1.45,-2.57 1.45,-4.14 z M 28.64,6.46 c 1.6,1.6 2.59,3.81 2.59,6.24 0,2.07 -0.72,3.98 -1.92,5.48 -1.22,1.53 -2.95,2.64 -4.91,3.1 l -0.07,0.02 c -0.58,0.11 -1.15,-0.28 -1.26,-0.86 -0.4,-2.12 -1.44,-4.03 -2.91,-5.5 -1.47,-1.47 -3.38,-2.51 -5.5,-2.91 l -0.04,-0.01 c -0.58,-0.13 -0.94,-0.71 -0.81,-1.29 0.45,-1.95 1.55,-3.67 3.05,-4.89 l 0.06,-0.05 c 1.51,-1.2 3.41,-1.92 5.48,-1.92 2.4,0 4.58,0.97 6.18,2.53 l 0.07,0.06 z"
   id="path7"
   inkscape:connector-curvature="0"
   style="fill:#000000;fill-opacity:1;fill-rule:nonzero" />
 </g>
</svg>