<?xml version="1.0" encoding="UTF-8"?>
<!DOCTYPE svg PUBLIC "-//W3C//DTD SVG 1.1//EN" "http://www.w3.org/Graphics/SVG/1.1/DTD/svg11.dtd">
<!-- Creator: CorelDRAW 2019 (64-Bit) -->
<svg xmlns="http://www.w3.org/2000/svg" xml:space="preserve" width="17.3641mm" height="7.0269mm" version="1.1" style="shape-rendering:geometricPrecision; text-rendering:geometricPrecision; image-rendering:optimizeQuality; fill-rule:evenodd; clip-rule:evenodd"
viewBox="0 0 539.1 218.16"
 xmlns:xlink="http://www.w3.org/1999/xlink">
 <defs>
  <style type="text/css">
   <![CDATA[
    .str0 {stroke:black;stroke-width:10.52;stroke-linecap:round;stroke-linejoin:round;stroke-miterlimit:10}
    .fil0 {fill:none;fill-rule:nonzero}
   ]]>
  </style>
 </defs>
 <g id="Layer_x0020_1">
  <metadata id="CorelCorpID_0Corel-Layer"/>
  <path class="fil0 str0" d="M165.05 165.03c-3.66,24.1 -23.27,43.69 -47.39,47.24 -31.98,4.73 -59.85,-17.49 -64.47,-47.3 -27.1,-4.21 -47.93,-27.63 -47.93,-55.89 0,-28.27 20.83,-51.69 47.93,-55.9 4.63,-29.81 32.49,-52.02 64.47,-47.3 24.12,3.56 43.72,23.14 47.39,47.24 1.56,10.27 0.32,20.11 -3.06,28.89 -3.27,8.49 2.67,17.62 11.76,17.62l350.65 0c5.21,0 9.44,4.22 9.44,9.44 0,5.21 -4.23,9.44 -9.44,9.44l-18.88 0c-5.22,0 -9.44,4.22 -9.44,9.44 0,5.25 4.28,9.5 9.55,9.43 5.17,-0.06 9.33,4.27 9.33,9.45l0 18.87c0,5.21 -4.23,9.44 -9.44,9.44 -5.22,0 -9.44,-4.23 -9.44,-9.44 0,-5.21 -4.23,-9.44 -9.44,-9.44 -5.22,0 -9.44,4.23 -9.44,9.44 0,5.21 -4.23,9.44 -9.44,9.44 -5.22,0 -9.44,-4.23 -9.44,-9.44 0,-5.21 -4.23,-9.44 -9.44,-9.44 -5.22,0 -9.44,4.23 -9.44,9.44 0,5.21 -4.23,9.44 -9.44,9.44 -5.22,0 -9.44,-4.23 -9.44,-9.44l0 -18.87c0,-5.18 4.15,-9.5 9.32,-9.45 5.27,0.07 9.56,-4.18 9.56,-9.43 0,-5.22 -4.23,-9.44 -9.44,-9.44l-256.26 0c-9.09,0 -15.03,9.12 -11.76,17.62 3.38,8.79 4.62,18.62 3.06,28.89zm-55.96 29c20.82,0 37.75,-16.94 37.75,-37.76 0,-17.91 -12.57,-32.88 -29.33,-36.72 -4.29,22.84 -22.31,40.86 -45.15,45.15 3.85,16.76 18.81,29.33 36.73,29.33zm-11.39 -73.56c-11.61,3.71 -20.71,12.8 -24.42,24.42 11.61,-3.71 20.71,-12.81 24.42,-24.42zm-73.57 -11.39c0,17.91 12.57,32.88 29.33,36.73 2.87,-15.29 11.87,-28.42 24.38,-36.73 -12.51,-8.31 -21.52,-21.44 -24.38,-36.73 -16.76,3.85 -29.33,18.82 -29.33,36.73zm73.57 -11.38c-3.71,-11.62 -12.81,-20.72 -24.42,-24.42 3.71,11.61 12.81,20.71 24.42,24.42zm49.14 -35.81c0,-20.82 -16.94,-37.76 -37.75,-37.76 -17.91,0 -32.88,12.56 -36.73,29.32 22.84,4.29 40.86,22.32 45.15,45.16 16.76,-3.85 29.33,-18.82 29.33,-36.72z"/>
 </g>
</svg>
