<?xml version="1.0" encoding="UTF-8" standalone="no"?>
<!-- Creator: CorelDRAW 2019 (64-Bit) -->

<svg
   xmlns:dc="http://purl.org/dc/elements/1.1/"
   xmlns:cc="http://creativecommons.org/ns#"
   xmlns:rdf="http://www.w3.org/1999/02/22-rdf-syntax-ns#"
   xmlns:svg="http://www.w3.org/2000/svg"
   xmlns="http://www.w3.org/2000/svg"
   xmlns:sodipodi="http://sodipodi.sourceforge.net/DTD/sodipodi-0.dtd"
   xmlns:inkscape="http://www.inkscape.org/namespaces/inkscape"
   xml:space="preserve"
   width="350"
   height="350"
   version="1.1"
   style="clip-rule:evenodd;fill-rule:evenodd;image-rendering:optimizeQuality;shape-rendering:geometricPrecision;text-rendering:geometricPrecision"
   viewBox="0 0 3961.8602 3961.8269"
   id="svg85"
   sodipodi:docname="timeline_icon.svg"
   inkscape:version="0.92.3 (2405546, 2018-03-11)"><metadata
   id="metadata89"><rdf:RDF><cc:Work
       rdf:about=""><dc:format>image/svg+xml</dc:format><dc:type
         rdf:resource="http://purl.org/dc/dcmitype/StillImage" /><dc:title></dc:title></cc:Work></rdf:RDF></metadata><sodipodi:namedview
   pagecolor="#ffffff"
   bordercolor="#666666"
   borderopacity="1"
   objecttolerance="10"
   gridtolerance="10"
   guidetolerance="10"
   inkscape:pageopacity="0"
   inkscape:pageshadow="2"
   inkscape:window-width="1920"
   inkscape:window-height="1015"
   id="namedview87"
   showgrid="false"
   units="px"
   inkscape:zoom="0.95325548"
   inkscape:cx="127.37752"
   inkscape:cy="231.87458"
   inkscape:window-x="1920"
   inkscape:window-y="0"
   inkscape:window-maximized="1"
   inkscape:current-layer="svg85" />
 <defs
   id="defs4">
  <style
   type="text/css"
   id="style2">
   <![CDATA[
    .str1 {stroke:black;stroke-width:14.49;stroke-linecap:round;stroke-miterlimit:10}
    .str2 {stroke:black;stroke-width:14.49;stroke-linecap:round;stroke-miterlimit:10;stroke-dasharray:36.219818 108.659453}
    .str0 {stroke:black;stroke-width:14.49;stroke-linecap:round;stroke-miterlimit:10;stroke-dasharray:181.099088 181.099088}
    .fil0 {fill:none;fill-rule:nonzero}
   ]]>
  </style>
 </defs>
 <g
   id="Layer_x0020_1"
   transform="matrix(5.6533247,0,0,5.6533247,290.70275,0.13866008)">
  <metadata
   id="CorelCorpID_0Corel-Layer" />
  <g
   id="_2255912716272">
   <path
   class="fil0 str0"
   d="m 24.92,256.35 c 0,0 1.06,133.23 85.57,167.36 84.52,34.13 122.2,-16.21 122.2,-16.21"
   id="path7"
   inkscape:connector-curvature="0"
   style="fill:none;fill-rule:nonzero;stroke:#000000;stroke-width:14.48999977;stroke-linecap:round;stroke-miterlimit:10;stroke-dasharray:181.099088, 181.099088" />
   <path
   class="fil0 str0"
   d="m 12.29,427.43 c 0,0 49.82,79.17 119.52,80.79 69.7,1.63 86.56,-29.04 100.89,-69.78"
   id="path9"
   inkscape:connector-curvature="0"
   style="fill:none;fill-rule:nonzero;stroke:#000000;stroke-width:14.48999977;stroke-linecap:round;stroke-miterlimit:10;stroke-dasharray:181.099088, 181.099088" />
   <path
   class="fil0 str1"
   d="m 55.74,547.27 c 0,0 61.26,47.1 131.15,24.34 69.89,-22.75 64.54,-85.86 64.54,-85.86"
   id="path11"
   inkscape:connector-curvature="0"
   style="fill:none;fill-rule:nonzero;stroke:#000000;stroke-width:14.48999977;stroke-linecap:round;stroke-miterlimit:10" />
   <path
   class="fil0 str1"
   d="m 122.81,629.05 c 0,0 68.01,30.34 128.62,-10.3 60.61,-40.63 38.44,-85.98 31.65,-101.5"
   id="path13"
   inkscape:connector-curvature="0"
   style="fill:none;fill-rule:nonzero;stroke:#000000;stroke-width:14.48999977;stroke-linecap:round;stroke-miterlimit:10" />
   <path
   class="fil0 str1"
   d="m 232.7,686.76 c 0,0 64.59,5.04 102.1,-67.86 30.71,-59.69 -16.5,-89.28 -16.5,-89.28"
   id="path15"
   inkscape:connector-curvature="0"
   style="fill:none;fill-rule:nonzero;stroke:#000000;stroke-width:14.48999977;stroke-linecap:round;stroke-miterlimit:10" />
   <path
   class="fil0 str1"
   d="m 362.47,680.53 c 0,0 40.59,-35.78 38.96,-91.04 -1.63,-55.26 -43.88,-63.74 -43.88,-63.74"
   id="path17"
   inkscape:connector-curvature="0"
   style="fill:none;fill-rule:nonzero;stroke:#000000;stroke-width:14.48999977;stroke-linecap:round;stroke-miterlimit:10" />
   <path
   class="fil0 str1"
   d="m 382.48,508.16 c 0,0 34.95,-8.66 56.34,25.57 36.52,58.44 -5.39,110.35 -5.39,110.35"
   id="path19"
   inkscape:connector-curvature="0"
   style="fill:none;fill-rule:nonzero;stroke:#000000;stroke-width:14.48999977;stroke-linecap:round;stroke-miterlimit:10" />
   <path
   class="fil0 str1"
   d="m 403.51,475.84 c 0,0 38.56,-9.87 66.19,21.01 27.63,30.88 30.26,72.03 30.26,72.03"
   id="path21"
   inkscape:connector-curvature="0"
   style="fill:none;fill-rule:nonzero;stroke:#000000;stroke-width:14.48999977;stroke-linecap:round;stroke-miterlimit:10" />
   <path
   class="fil0 str1"
   d="m 407.04,448.17 c 0,0 21.95,-12.59 56.16,-1.64 41.66,13.34 59.53,67.15 59.53,67.15"
   id="path23"
   inkscape:connector-curvature="0"
   style="fill:none;fill-rule:nonzero;stroke:#000000;stroke-width:14.48999977;stroke-linecap:round;stroke-miterlimit:10" />
   <path
   class="fil0 str1"
   d="m 401.05,426.62 c 0,0 9.6,-25.67 45.63,-25.67 47.81,0 82.45,42.72 82.45,42.72"
   id="path25"
   inkscape:connector-curvature="0"
   style="fill:none;fill-rule:nonzero;stroke:#000000;stroke-width:14.48999977;stroke-linecap:round;stroke-miterlimit:10" />
   <path
   class="fil0 str1"
   d="m 381.05,400.95 c 0,0 12.74,-21.1 43.14,-30.88 43.33,-13.94 85.63,10.49 85.63,10.49"
   id="path27"
   inkscape:connector-curvature="0"
   style="fill:none;fill-rule:nonzero;stroke:#000000;stroke-width:14.48999977;stroke-linecap:round;stroke-miterlimit:10" />
   <path
   class="fil0 str1"
   d="m 362.6,398.18 c 0,0 4.74,-69.34 98.86,-69.34"
   id="path29"
   inkscape:connector-curvature="0"
   style="fill:none;fill-rule:nonzero;stroke:#000000;stroke-width:14.48999977;stroke-linecap:round;stroke-miterlimit:10" />
   <path
   class="fil0 str1"
   d="m 339.63,397.03 c 0,0 -24.11,-60.21 57.86,-92.35"
   id="path31"
   inkscape:connector-curvature="0"
   style="fill:none;fill-rule:nonzero;stroke:#000000;stroke-width:14.48999977;stroke-linecap:round;stroke-miterlimit:10" />
   <path
   class="fil0 str1"
   d="m 321.49,404.08 c 0,0 -29.58,-61.93 18.14,-97.4"
   id="path33"
   inkscape:connector-curvature="0"
   style="fill:none;fill-rule:nonzero;stroke:#000000;stroke-width:14.48999977;stroke-linecap:round;stroke-miterlimit:10" />
   <path
   class="fil0 str1"
   d="m 309.4,415.57 c 0,0 -49.12,-19.63 -16.74,-90.73"
   id="path35"
   inkscape:connector-curvature="0"
   style="fill:none;fill-rule:nonzero;stroke:#000000;stroke-width:14.48999977;stroke-linecap:round;stroke-miterlimit:10" />
   <path
   class="fil0 str1"
   d="m 302.52,429.63 c 0,0 -53.3,-4.54 -49.62,-68.47"
   id="path37"
   inkscape:connector-curvature="0"
   style="fill:none;fill-rule:nonzero;stroke:#000000;stroke-width:14.48999977;stroke-linecap:round;stroke-miterlimit:10" />
   <path
   class="fil0 str1"
   d="m 302.52,446.07 c 0,0 -55.59,16.27 -69.82,-38.58"
   id="path39"
   inkscape:connector-curvature="0"
   style="fill:none;fill-rule:nonzero;stroke:#000000;stroke-width:14.48999977;stroke-linecap:round;stroke-miterlimit:10" />
   <path
   class="fil0 str1"
   d="m 309.4,459.8 c 0,0 -39.52,26.82 -73.63,-7.66"
   id="path41"
   inkscape:connector-curvature="0"
   style="fill:none;fill-rule:nonzero;stroke:#000000;stroke-width:14.48999977;stroke-linecap:round;stroke-miterlimit:10" />
   <path
   class="fil0 str1"
   d="m 315.47,468.38 c 0,0 -20.38,36.64 -64.04,17.37"
   id="path43"
   inkscape:connector-curvature="0"
   style="fill:none;fill-rule:nonzero;stroke:#000000;stroke-width:14.48999977;stroke-linecap:round;stroke-miterlimit:10" />
   <path
   class="fil0 str1"
   d="m 322.85,472.01 c 0,0 7.14,35.8 -48.1,38.6"
   id="path45"
   inkscape:connector-curvature="0"
   style="fill:none;fill-rule:nonzero;stroke:#000000;stroke-width:14.48999977;stroke-linecap:round;stroke-miterlimit:10" />
   <path
   class="fil0 str1"
   d="m 334.67,474.86 c 0,0 17.82,29.67 -29.7,49.6"
   id="path47"
   inkscape:connector-curvature="0"
   style="fill:none;fill-rule:nonzero;stroke:#000000;stroke-width:14.48999977;stroke-linecap:round;stroke-miterlimit:10" />
   <path
   class="fil0 str1"
   d="m 349.04,474.86 c 0,0 25.69,25.7 -6.41,53.35"
   id="path49"
   inkscape:connector-curvature="0"
   style="fill:none;fill-rule:nonzero;stroke:#000000;stroke-width:14.48999977;stroke-linecap:round;stroke-miterlimit:10" />
   <path
   class="fil0 str1"
   d="m 360.54,467.65 c 0,0 9.7,5.78 12.67,17.85 4.08,16.63 -1.7,31.16 -1.7,31.16"
   id="path51"
   inkscape:connector-curvature="0"
   style="fill:none;fill-rule:nonzero;stroke:#000000;stroke-width:14.48999977;stroke-linecap:round;stroke-miterlimit:10" />
   <path
   class="fil0 str1"
   d="m 363.59,460.35 c 0,0 9.42,-0.99 17.46,5.39 11.52,9.14 12.89,24.38 12.89,24.38"
   id="path53"
   inkscape:connector-curvature="0"
   style="fill:none;fill-rule:nonzero;stroke:#000000;stroke-width:14.48999977;stroke-linecap:round;stroke-miterlimit:10" />
   <path
   class="fil0 str1"
   d="m 315.47,411.74 c 0,0 25.87,4.36 33.57,32.28"
   id="path55"
   inkscape:connector-curvature="0"
   style="fill:none;fill-rule:nonzero;stroke:#000000;stroke-width:14.48999977;stroke-linecap:round;stroke-miterlimit:10" />
   <path
   class="fil0 str1"
   d="m 330.74,401.35 c 0,0 29.36,11.78 25.4,42.32"
   id="path57"
   inkscape:connector-curvature="0"
   style="fill:none;fill-rule:nonzero;stroke:#000000;stroke-width:14.48999977;stroke-linecap:round;stroke-miterlimit:10" />
   <path
   class="fil0 str1"
   d="m 362.6,398.18 c 0,0 9.69,23.21 -3.66,47.9"
   id="path59"
   inkscape:connector-curvature="0"
   style="fill:none;fill-rule:nonzero;stroke:#000000;stroke-width:14.48999977;stroke-linecap:round;stroke-miterlimit:10" />
   <path
   class="fil0 str1"
   d="m 382.48,406.7 c 0,0 -1.35,25.78 -21.94,41.47"
   id="path61"
   inkscape:connector-curvature="0"
   style="fill:none;fill-rule:nonzero;stroke:#000000;stroke-width:14.48999977;stroke-linecap:round;stroke-miterlimit:10" />
   <path
   class="fil0 str1"
   d="m 396.3,422.51 c 0,0 -12.12,21.58 -31.88,31.3"
   id="path63"
   inkscape:connector-curvature="0"
   style="fill:none;fill-rule:nonzero;stroke:#000000;stroke-width:14.48999977;stroke-linecap:round;stroke-miterlimit:10" />
   <path
   class="fil0 str1"
   d="m 302.52,433.02 c 0,0 23.51,-7.29 42.03,10.2"
   id="path65"
   inkscape:connector-curvature="0"
   style="fill:none;fill-rule:nonzero;stroke:#000000;stroke-width:14.48999977;stroke-linecap:round;stroke-miterlimit:10" />
   <path
   class="fil0 str1"
   d="m 309.4,453.81 c 9.87,-16.45 33.9,-7.74 33.9,-7.74"
   id="path67"
   inkscape:connector-curvature="0"
   style="fill:none;fill-rule:nonzero;stroke:#000000;stroke-width:14.48999977;stroke-linecap:round;stroke-miterlimit:10" />
   <path
   class="fil0 str1"
   d="m 343.29,448.17 c -19.87,-0.62 -25,20.21 -25,20.21"
   id="path69"
   inkscape:connector-curvature="0"
   style="fill:none;fill-rule:nonzero;stroke:#000000;stroke-width:14.48999977;stroke-linecap:round;stroke-miterlimit:10" />
   <path
   class="fil0 str1"
   d="m 344.55,448.61 c -19.56,6.09 -13.75,23.86 -13.75,23.86"
   id="path71"
   inkscape:connector-curvature="0"
   style="fill:none;fill-rule:nonzero;stroke:#000000;stroke-width:14.48999977;stroke-linecap:round;stroke-miterlimit:10" />
   <path
   class="fil0 str1"
   d="m 343.39,472.86 c 0,0 -9.45,-12.85 -0.76,-20.72"
   id="path73"
   inkscape:connector-curvature="0"
   style="fill:none;fill-rule:nonzero;stroke:#000000;stroke-width:14.48999977;stroke-linecap:round;stroke-miterlimit:10" />
   <path
   class="fil0 str1"
   d="m 354.69,469.36 c -0.94,0.45 -11.4,-3.33 -11.8,-11.66"
   id="path75"
   inkscape:connector-curvature="0"
   style="fill:none;fill-rule:nonzero;stroke:#000000;stroke-width:14.48999977;stroke-linecap:round;stroke-miterlimit:10" />
   <path
   class="fil0 str2"
   d="M 94.61,131.24 C 300.1,-88.08 531.47,39.94 590.65,90.27"
   id="path77"
   inkscape:connector-curvature="0"
   style="fill:none;fill-rule:nonzero;stroke:#000000;stroke-width:14.48999977;stroke-linecap:round;stroke-miterlimit:10;stroke-dasharray:36.219818, 108.659453" />
   <path
   class="fil0 str1"
   d="m 360.54,467.65 c -36.59,24.81 -74.56,-17.99 -51.14,-52.08 15.93,-23.19 56.9,-27.48 80.83,-3.83 38.37,37.92 8.91,112.72 -57.97,117.88 -70.36,5.44 -141.53,-97.06 -71.6,-178.37 44.8,-52.1 143.52,-69.86 212.68,-13.68 99.17,80.56 58.77,242.79 -49.82,312.93 C 149.49,827.51 -142.95,420.2 94.62,131.23"
   id="path79"
   inkscape:connector-curvature="0"
   style="fill:none;fill-rule:nonzero;stroke:#000000;stroke-width:14.48999977;stroke-linecap:round;stroke-miterlimit:10" />
   <path
   class="fil0 str1"
   d="m 342.89,457.7 c -2.42,-12.31 12.89,-17.38 19.18,-7.46 4.27,6.75 1.01,14.76 -1.53,17.41"
   id="path81"
   inkscape:connector-curvature="0"
   style="fill:none;fill-rule:nonzero;stroke:#000000;stroke-width:14.48999977;stroke-linecap:round;stroke-miterlimit:10" />
  </g>
 </g>
</svg>