<?xml version="1.0" encoding="UTF-8"?>
<!DOCTYPE svg PUBLIC "-//W3C//DTD SVG 1.1//EN" "http://www.w3.org/Graphics/SVG/1.1/DTD/svg11.dtd">
<!-- Creator: CorelDRAW 2019 (64-Bit) -->
<svg xmlns="http://www.w3.org/2000/svg" xml:space="preserve" width="13.8058mm" height="16.3759mm" version="1.1" style="shape-rendering:geometricPrecision; text-rendering:geometricPrecision; image-rendering:optimizeQuality; fill-rule:evenodd; clip-rule:evenodd"
viewBox="0 0 590.65 700.6"
 xmlns:xlink="http://www.w3.org/1999/xlink">
 <defs>
  <style type="text/css">
   <![CDATA[
    .str1 {stroke:black;stroke-width:14.49;stroke-linecap:round;stroke-miterlimit:10}
    .str2 {stroke:black;stroke-width:14.49;stroke-linecap:round;stroke-miterlimit:10;stroke-dasharray:36.219818 108.659453}
    .str0 {stroke:black;stroke-width:14.49;stroke-linecap:round;stroke-miterlimit:10;stroke-dasharray:181.099088 181.099088}
    .fil0 {fill:none;fill-rule:nonzero}
   ]]>
  </style>
 </defs>
 <g id="Layer_x0020_1">
  <metadata id="CorelCorpID_0Corel-Layer"/>
  <g id="_2255912716272">
   <path class="fil0 str0" d="M24.92 256.35c0,0 1.06,133.23 85.57,167.36 84.52,34.13 122.2,-16.21 122.2,-16.21"/>
   <path class="fil0 str0" d="M12.29 427.43c0,0 49.82,79.17 119.52,80.79 69.7,1.63 86.56,-29.04 100.89,-69.78"/>
   <path class="fil0 str1" d="M55.74 547.27c0,0 61.26,47.1 131.15,24.34 69.89,-22.75 64.54,-85.86 64.54,-85.86"/>
   <path class="fil0 str1" d="M122.81 629.05c0,0 68.01,30.34 128.62,-10.3 60.61,-40.63 38.44,-85.98 31.65,-101.5"/>
   <path class="fil0 str1" d="M232.7 686.76c0,0 64.59,5.04 102.1,-67.86 30.71,-59.69 -16.5,-89.28 -16.5,-89.28"/>
   <path class="fil0 str1" d="M362.47 680.53c0,0 40.59,-35.78 38.96,-91.04 -1.63,-55.26 -43.88,-63.74 -43.88,-63.74"/>
   <path class="fil0 str1" d="M382.48 508.16c0,0 34.95,-8.66 56.34,25.57 36.52,58.44 -5.39,110.35 -5.39,110.35"/>
   <path class="fil0 str1" d="M403.51 475.84c0,0 38.56,-9.87 66.19,21.01 27.63,30.88 30.26,72.03 30.26,72.03"/>
   <path class="fil0 str1" d="M407.04 448.17c0,0 21.95,-12.59 56.16,-1.64 41.66,13.34 59.53,67.15 59.53,67.15"/>
   <path class="fil0 str1" d="M401.05 426.62c0,0 9.6,-25.67 45.63,-25.67 47.81,0 82.45,42.72 82.45,42.72"/>
   <path class="fil0 str1" d="M381.05 400.95c0,0 12.74,-21.1 43.14,-30.88 43.33,-13.94 85.63,10.49 85.63,10.49"/>
   <path class="fil0 str1" d="M362.6 398.18c0,0 4.74,-69.34 98.86,-69.34"/>
   <path class="fil0 str1" d="M339.63 397.03c0,0 -24.11,-60.21 57.86,-92.35"/>
   <path class="fil0 str1" d="M321.49 404.08c0,0 -29.58,-61.93 18.14,-97.4"/>
   <path class="fil0 str1" d="M309.4 415.57c0,0 -49.12,-19.63 -16.74,-90.73"/>
   <path class="fil0 str1" d="M302.52 429.63c0,0 -53.3,-4.54 -49.62,-68.47"/>
   <path class="fil0 str1" d="M302.52 446.07c0,0 -55.59,16.27 -69.82,-38.58"/>
   <path class="fil0 str1" d="M309.4 459.8c0,0 -39.52,26.82 -73.63,-7.66"/>
   <path class="fil0 str1" d="M315.47 468.38c0,0 -20.38,36.64 -64.04,17.37"/>
   <path class="fil0 str1" d="M322.85 472.01c0,0 7.14,35.8 -48.1,38.6"/>
   <path class="fil0 str1" d="M334.67 474.86c0,0 17.82,29.67 -29.7,49.6"/>
   <path class="fil0 str1" d="M349.04 474.86c0,0 25.69,25.7 -6.41,53.35"/>
   <path class="fil0 str1" d="M360.54 467.65c0,0 9.7,5.78 12.67,17.85 4.08,16.63 -1.7,31.16 -1.7,31.16"/>
   <path class="fil0 str1" d="M363.59 460.35c0,0 9.42,-0.99 17.46,5.39 11.52,9.14 12.89,24.38 12.89,24.38"/>
   <path class="fil0 str1" d="M315.47 411.74c0,0 25.87,4.36 33.57,32.28"/>
   <path class="fil0 str1" d="M330.74 401.35c0,0 29.36,11.78 25.4,42.32"/>
   <path class="fil0 str1" d="M362.6 398.18c0,0 9.69,23.21 -3.66,47.9"/>
   <path class="fil0 str1" d="M382.48 406.7c0,0 -1.35,25.78 -21.94,41.47"/>
   <path class="fil0 str1" d="M396.3 422.51c0,0 -12.12,21.58 -31.88,31.3"/>
   <path class="fil0 str1" d="M302.52 433.02c0,0 23.51,-7.29 42.03,10.2"/>
   <path class="fil0 str1" d="M309.4 453.81c9.87,-16.45 33.9,-7.74 33.9,-7.74"/>
   <path class="fil0 str1" d="M343.29 448.17c-19.87,-0.62 -25,20.21 -25,20.21"/>
   <path class="fil0 str1" d="M344.55 448.61c-19.56,6.09 -13.75,23.86 -13.75,23.86"/>
   <path class="fil0 str1" d="M343.39 472.86c0,0 -9.45,-12.85 -0.76,-20.72"/>
   <path class="fil0 str1" d="M354.69 469.36c-0.94,0.45 -11.4,-3.33 -11.8,-11.66"/>
   <path class="fil0 str2" d="M94.61 131.24c205.49,-219.32 436.86,-91.3 496.04,-40.97"/>
   <path class="fil0 str1" d="M360.54 467.65c-36.59,24.81 -74.56,-17.99 -51.14,-52.08 15.93,-23.19 56.9,-27.48 80.83,-3.83 38.37,37.92 8.91,112.72 -57.97,117.88 -70.36,5.44 -141.53,-97.06 -71.6,-178.37 44.8,-52.1 143.52,-69.86 212.68,-13.68 99.17,80.56 58.77,242.79 -49.82,312.93 -274.03,177.01 -566.47,-230.3 -328.9,-519.27"/>
   <path class="fil0 str1" d="M342.89 457.7c-2.42,-12.31 12.89,-17.38 19.18,-7.46 4.27,6.75 1.01,14.76 -1.53,17.41"/>
  </g>
 </g>
</svg>
