<?xml version="1.0" encoding="UTF-8"?>
<!DOCTYPE svg PUBLIC "-//W3C//DTD SVG 1.1//EN" "http://www.w3.org/Graphics/SVG/1.1/DTD/svg11.dtd">
<!-- Creator: CorelDRAW 2019 (64-Bit) -->
<svg xmlns="http://www.w3.org/2000/svg" xml:space="preserve" width="4.835mm" height="7.3908mm" version="1.1" style="shape-rendering:geometricPrecision; text-rendering:geometricPrecision; image-rendering:optimizeQuality; fill-rule:evenodd; clip-rule:evenodd"
viewBox="0 0 19.79 30.25"
 xmlns:xlink="http://www.w3.org/1999/xlink">
 <defs>
  <style type="text/css">
   <![CDATA[
    .fil0 {fill:black;fill-rule:nonzero}
   ]]>
  </style>
 </defs>
 <g id="Layer_x0020_1">
  <metadata id="CorelCorpID_0Corel-Layer"/>
  <path class="fil0" d="M1.84 27.38c-0.15,0.15 -0.41,0.15 -0.56,0 -0.15,-0.15 -0.15,-0.41 0,-0.56 2.32,-2.32 5.3,-3.57 8.33,-3.75l0 -3.28c-2.62,-0.08 -4.98,-1.17 -6.71,-2.89 -1.79,-1.79 -2.9,-4.26 -2.9,-7 0,-2.73 1.11,-5.21 2.9,-7 1.79,-1.79 4.27,-2.9 7,-2.9l0.07 0 0.03 -0 0.04 0c2.67,0.04 5.09,1.14 6.85,2.9 1.79,1.79 2.9,4.26 2.9,7 0,2.73 -1.11,5.21 -2.9,7 -1.68,1.68 -3.96,2.76 -6.49,2.89l0 3.27c3.29,0.01 6.57,1.26 9.08,3.77 0.15,0.15 0.15,0.41 0,0.56 -0.15,0.15 -0.41,0.15 -0.56,0 -2.35,-2.35 -5.43,-3.53 -8.52,-3.54l0 1.88c1.97,0.09 3.91,0.89 5.42,2.39 0.15,0.15 0.15,0.41 0,0.56 -0.15,0.15 -0.41,0.15 -0.56,0 -1.35,-1.35 -3.09,-2.07 -4.86,-2.16l0 1.35c0.65,0.07 1.29,0.36 1.79,0.86 0.09,0.09 0.13,0.21 0.11,0.32 0.02,0.12 -0.02,0.24 -0.11,0.34 -0.58,0.58 -1.34,0.87 -2.1,0.87 -0.76,0 -1.52,-0.29 -2.1,-0.87 -0.09,-0.09 -0.13,-0.21 -0.12,-0.33 -0.02,-0.12 0.02,-0.24 0.11,-0.33 0.46,-0.46 1.03,-0.74 1.63,-0.83l0 -1.37c-1.76,0.1 -3.49,0.82 -4.83,2.16 -0.15,0.15 -0.41,0.15 -0.56,0 -0.15,-0.15 -0.15,-0.41 0,-0.56 1.5,-1.5 3.43,-2.29 5.39,-2.39l0 -1.85c-2.83,0.18 -5.61,1.35 -7.77,3.51zm7.77 -8.39l0 -18.19c-2.4,0.08 -4.56,1.08 -6.14,2.66 -1.65,1.65 -2.66,3.92 -2.66,6.44 0,2.51 1.02,4.79 2.67,6.44 1.58,1.58 3.75,2.58 6.14,2.66zm0.79 -18.18l0 18.17c2.31,-0.13 4.4,-1.12 5.93,-2.65 1.65,-1.65 2.67,-3.92 2.67,-6.44 0,-2.51 -1.02,-4.79 -2.67,-6.44 -1.54,-1.54 -3.62,-2.53 -5.93,-2.65zm0.95 28.24c-0.38,-0.27 -0.82,-0.41 -1.27,-0.41 -0.45,0 -0.89,0.14 -1.27,0.41 0.38,0.27 0.82,0.41 1.27,0.41 0.45,0 0.89,-0.14 1.27,-0.41z"/>
 </g>
</svg>
