<?xml version="1.0" encoding="UTF-8"?>
<!DOCTYPE svg PUBLIC "-//W3C//DTD SVG 1.1//EN" "http://www.w3.org/Graphics/SVG/1.1/DTD/svg11.dtd">
<!-- Creator: CorelDRAW 2019 (64-Bit) -->
<svg xmlns="http://www.w3.org/2000/svg" xml:space="preserve" width="8.436mm" height="12.8957mm" version="1.1" style="shape-rendering:geometricPrecision; text-rendering:geometricPrecision; image-rendering:optimizeQuality; fill-rule:evenodd; clip-rule:evenodd"
viewBox="0 0 62.15 95"
 xmlns:xlink="http://www.w3.org/1999/xlink">
 <defs>
  <style type="text/css">
   <![CDATA[
    .str0 {stroke:black;stroke-width:2.5;stroke-linecap:round;stroke-miterlimit:10}
    .str1 {stroke:black;stroke-width:2.5;stroke-linecap:round;stroke-miterlimit:10}
    .fil0 {fill:none;fill-rule:nonzero}
   ]]>
  </style>
 </defs>
 <g id="Layer_x0020_1">
  <metadata id="CorelCorpID_0Corel-Layer"/>
  <g id="_2255749607616">
   <path class="fil0 str0" d="M4.88 85.09c15.3,-15.3 40.1,-15.3 55.4,0"/>
   <path class="fil0 str1" d="M37.38 91.38c-3.16,3.16 -8.29,3.16 -11.45,0"/>
   <path class="fil0 str1" d="M25.93 91.07c3.16,-3.16 8.29,-3.16 11.45,0"/>
   <line class="fil0 str0" x1="31.4" y1="88.67" x2="31.4" y2= "1.25" />
   <path class="fil0 str0" d="M14.12 89.16c9.57,-9.57 25.1,-9.57 34.67,-0"/>
   <path class="fil0 str0" d="M60.9 31.08c0,16.47 -13.35,29.82 -29.82,29.82 -16.47,0 -29.82,-13.35 -29.82,-29.82 0,-16.47 13.35,-29.82 29.82,-29.82 16.47,0 29.82,13.35 29.82,29.82z"/>
  </g>
 </g>
</svg>
