<?xml version="1.0" encoding="UTF-8"?>
<!DOCTYPE svg PUBLIC "-//W3C//DTD SVG 1.1//EN" "http://www.w3.org/Graphics/SVG/1.1/DTD/svg11.dtd">
<!-- Creator: CorelDRAW 2019 (64-Bit) -->
<svg xmlns="http://www.w3.org/2000/svg" xml:space="preserve" width="55px" height="55px" version="1.1" style="shape-rendering:geometricPrecision; text-rendering:geometricPrecision; image-rendering:optimizeQuality; fill-rule:evenodd; clip-rule:evenodd"
viewBox="0 0 0.82 0.82"
 xmlns:xlink="http://www.w3.org/1999/xlink"
 xmlns:xodm="http://www.corel.com/coreldraw/odm/2003">
 <defs>
  <style type="text/css">
   <![CDATA[
    .fil0 {fill:black}
    .fil1 {fill:white}
   ]]>
  </style>
 </defs>
 <g id="Layer_x0020_1">
  <metadata id="CorelCorpID_0Corel-Layer"/>
  <rect class="fil0" x="0.03" y="0.03" width="0.76" height="0.76"/>
  <path class="fil1" d="M0 0l0.82 0 0 0.82 -0.82 0 0 -0.82zm0.58 0.19l0.07 0 -0.22 0.44 -0.06 0 0.21 -0.44zm0.01 0.39l0.05 0 0 -0.1 -0.05 0 0 0.1zm-0.21 -0.24l0.05 0 0 -0.1 -0.05 0 0 0.1zm-0.01 0.04c-0.02,0 -0.04,-0.01 -0.04,-0.03l0 -0.12c0,-0.03 0.02,-0.04 0.04,-0.04l0.06 0c0.02,0 0.04,0.01 0.04,0.04l0 0.12c0,0.02 -0.02,0.03 -0.04,0.03l-0.06 0zm0.22 0.25c-0.02,0 -0.04,-0.01 -0.04,-0.04l0 -0.12c0,-0.02 0.02,-0.03 0.04,-0.03l0.06 0c0.02,0 0.03,0.01 0.03,0.03l0 0.12c0,0.03 -0.01,0.04 -0.03,0.04l-0.06 0zm-0.45 -0.35l0.03 0.04 0.05 -0.04 0 0.29 -0.06 0 0 0.06 0.18 0 0 -0.06 -0.06 0 0 -0.38 -0.06 0 -0.08 0.09zm-0.11 -0.25l0.76 0 0 0.76 -0.76 0 0 -0.76z"/>
 </g>
</svg>
